<svg xmlns="http://www.w3.org/2000/svg" xmlns:xlink="http://www.w3.org/1999/xlink" viewBox="0 0 268.48 93.86">
    <defs>
        <style>
            .cls-1 {
                fill: #5f4b8c;
            }
            .cls-2 {
                fill: url("#linear-gradient");
            }
            .cls-3 {
                fill: url("#New_Gradient_Swatch_1");
            }
            .cls-4 {
                fill: url("#linear-gradient-2");
            }
            .cls-5 {
                fill: url("#linear-gradient-3");
            }
            .cls-6 {
                fill: url("#linear-gradient-4");
            }
            .cls-7 {
                fill: url("#linear-gradient-5");
            }
            .cls-8 {
                fill: url("#New_Gradient_Swatch_1-2");
            }
        </style>
        <linearGradient id="linear-gradient" x1="45.83" y1="64.36" x2="28.46" y2="3.74" gradientUnits="userSpaceOnUse"><stop offset="0.64" stop-color="#5f4b8c"/><stop offset="1" stop-color="#8372a4"/></linearGradient>
        <linearGradient id="New_Gradient_Swatch_1" x1="47.82" y1="77.46" x2="71.5" y2="29.79" gradientUnits="userSpaceOnUse"><stop offset="0.46" stop-color="#85de76"/><stop offset="1" stop-color="#a4e696"/></linearGradient>
        <linearGradient id="linear-gradient-2" x1="116.36" y1="52.71" x2="116.36" y2="25.08" gradientUnits="userSpaceOnUse"><stop offset="0.46" stop-color="#5f4b8c"/><stop offset="1" stop-color="#7c6a9e"/></linearGradient><linearGradient id="linear-gradient-3" x1="159.89" y1="52.71" x2="159.89" y2="25.08" xlink:href="#linear-gradient-2"/><linearGradient id="linear-gradient-4" x1="203.63" y1="52.71" x2="203.63" y2="25.08" xlink:href="#linear-gradient-2"/><linearGradient id="linear-gradient-5" x1="250.77" y1="49.23" x2="241.83" y2="18.01" xlink:href="#linear-gradient"/><linearGradient id="New_Gradient_Swatch_1-2" x1="251.79" y1="55.98" x2="263.99" y2="31.43" xlink:href="#New_Gradient_Swatch_1"/></defs>
    <title>Asset 5</title>
    <g id="Layer_2" data-name="Layer 2">
        <g id="Layer_1-2" data-name="Layer 1"><path
            class="cls-1"
            d="M132.74,88.58a.2.2,0,0,1,.19.15,4.4,4.4,0,0,0,1.48,2.69,5.12,5.12,0,0,0,3.13.82,5.43,5.43,0,0,0,1.71-.24,3.36,3.36,0,0,0,1.19-.64,3,3,0,0,0,.71-.92,2.51,2.51,0,0,0,.24-1.08,2,2,0,0,0-.74-1.7,5.78,5.78,0,0,0-1.85-.87,23.76,23.76,0,0,0-2.4-.54,11.74,11.74,0,0,1-2.4-.67,4.79,4.79,0,0,1-1.84-1.29,3.49,3.49,0,0,1-.74-2.37,4.06,4.06,0,0,1,1.43-3.2,5.93,5.93,0,0,1,4-1.24A6.9,6.9,0,0,1,141,78.6a5,5,0,0,1,1.87,3.54.2.2,0,0,1-.19.23h-1.44a.19.19,0,0,1-.19-.17,3.28,3.28,0,0,0-1.34-2.37,5.1,5.1,0,0,0-2.84-.73,4,4,0,0,0-2.61.73,2.39,2.39,0,0,0-.9,1.94,1.88,1.88,0,0,0,.74,1.6,6,6,0,0,0,1.84.9c.74.23,1.54.44,2.4.62a12.11,12.11,0,0,1,2.41.76A5.34,5.34,0,0,1,142.57,87a3.44,3.44,0,0,1,.74,2.34,4,4,0,0,1-.48,2,4.16,4.16,0,0,1-1.32,1.42,6.27,6.27,0,0,1-2,.86,10.63,10.63,0,0,1-2.54.28,6.82,6.82,0,0,1-2.44-.4,5.34,5.34,0,0,1-1.82-1.13,5.19,5.19,0,0,1-1.17-1.68,5.77,5.77,0,0,1-.46-1.86.19.19,0,0,1,.19-.21Z"/><path
            class="cls-1"
            d="M158.63,93.5q-.33.06-.87.21a4.48,4.48,0,0,1-1.2.15,2.87,2.87,0,0,1-2.06-.67,3.3,3.3,0,0,1-.7-2.42V79.59a.19.19,0,0,0-.19-.19H151.8a.19.19,0,0,1-.19-.2V78.09a.18.18,0,0,1,.19-.19h1.81a.2.2,0,0,0,.19-.2V73.77a.18.18,0,0,1,.19-.19h1.42a.19.19,0,0,1,.19.19V77.7a.2.2,0,0,0,.19.2h2.53a.19.19,0,0,1,.19.19V79.2a.2.2,0,0,1-.19.2h-2.53a.19.19,0,0,0-.19.19V90.05q0,.57,0,1a1.66,1.66,0,0,0,.18.69.85.85,0,0,0,.46.39,2.61,2.61,0,0,0,.89.12,4.59,4.59,0,0,0,.73-.06c.25,0,.5-.09.74-.15Z"/><path
            class="cls-1"
            d="M177.66,77.9h1.41a.19.19,0,0,1,.2.19V93.25a.19.19,0,0,1-.2.19h-1.41a.19.19,0,0,1-.2-.19v-2q-.36.42-.81.87a6.13,6.13,0,0,1-1,.83,6,6,0,0,1-1.37.63,5.8,5.8,0,0,1-1.8.25,6.85,6.85,0,0,1-2.61-.43,4.26,4.26,0,0,1-1.69-1.22,4.79,4.79,0,0,1-.93-1.81,8.55,8.55,0,0,1-.29-2.27v-10a.19.19,0,0,1,.19-.19h1.42a.19.19,0,0,1,.19.19v10a4.55,4.55,0,0,0,.93,3.08,3.87,3.87,0,0,0,3.06,1.06,4.48,4.48,0,0,0,2-.43,4.17,4.17,0,0,0,1.48-1.22,5.8,5.8,0,0,0,.93-1.86,8.08,8.08,0,0,0,.33-2.37V78.09A.19.19,0,0,1,177.66,77.9Z"/><path
            class="cls-1"
            d="M200.24,71.83h1.42a.2.2,0,0,1,.19.2V93.25a.19.19,0,0,1-.19.19h-1.42a.19.19,0,0,1-.19-.19V90.71H200a4.92,4.92,0,0,1-1,1.37,6.08,6.08,0,0,1-1.35,1,7.2,7.2,0,0,1-1.51.6,5.87,5.87,0,0,1-1.53.21,7.41,7.41,0,0,1-3.21-.63,6,6,0,0,1-2.18-1.72,7.05,7.05,0,0,1-1.24-2.6,12.72,12.72,0,0,1-.39-3.21,11.52,11.52,0,0,1,.42-3.12A7.75,7.75,0,0,1,189.26,80a6.32,6.32,0,0,1,2.16-1.8,6.63,6.63,0,0,1,3.08-.67,7.14,7.14,0,0,1,3.16.73,5.61,5.61,0,0,1,2,1.66.19.19,0,0,0,.35-.11V72A.2.2,0,0,1,200.24,71.83Zm-.19,13.78a8.61,8.61,0,0,0-.36-2.51,6.5,6.5,0,0,0-1-2.07A5,5,0,0,0,197,79.62a4.55,4.55,0,0,0-2.2-.52,5,5,0,0,0-2.43.55,4.8,4.8,0,0,0-1.68,1.52,6.53,6.53,0,0,0-1,2.23,10.18,10.18,0,0,0-.24,2.75,7.68,7.68,0,0,0,.4,2.6,5.52,5.52,0,0,0,1.13,1.9,4.82,4.82,0,0,0,1.68,1.19,5.35,5.35,0,0,0,2.1.4,4.84,4.84,0,0,0,2.25-.51,4.72,4.72,0,0,0,1.65-1.39,6.2,6.2,0,0,0,1-2.1A9.66,9.66,0,0,0,200.05,85.61Z"/><path
            class="cls-1"
            d="M210.15,74.31V72a.2.2,0,0,1,.19-.2h1.6a.19.19,0,0,1,.19.2v2.28a.19.19,0,0,1-.19.2h-1.6A.2.2,0,0,1,210.15,74.31Zm.09,18.94V78.09a.19.19,0,0,1,.19-.19h1.42a.18.18,0,0,1,.19.19V93.25a.18.18,0,0,1-.19.19h-1.42A.19.19,0,0,1,210.24,93.25Z"/><path
            class="cls-1"
            d="M227.64,93.86a8.07,8.07,0,0,1-2.81-.54,6.28,6.28,0,0,1-2.28-1.53A7.35,7.35,0,0,1,221,89.24a10.21,10.21,0,0,1-.57-3.57,11,11,0,0,1,.45-3.2,7.52,7.52,0,0,1,1.35-2.59,6.42,6.42,0,0,1,2.25-1.76,8.17,8.17,0,0,1,6.34,0,6.49,6.49,0,0,1,2.25,1.74,7.2,7.2,0,0,1,1.33,2.6,11.47,11.47,0,0,1,.44,3.21,10.4,10.4,0,0,1-.51,3.36,7.57,7.57,0,0,1-1.46,2.58,6.42,6.42,0,0,1-2.28,1.67A7.26,7.26,0,0,1,227.64,93.86Zm5.28-8.19a10.61,10.61,0,0,0-.3-2.58,6.14,6.14,0,0,0-.93-2.09,4.45,4.45,0,0,0-1.62-1.39,5.26,5.26,0,0,0-2.43-.51,4.92,4.92,0,0,0-2.42.55,4.74,4.74,0,0,0-1.64,1.47,6.46,6.46,0,0,0-.93,2.1,10,10,0,0,0-.3,2.45,9.65,9.65,0,0,0,.35,2.65,6.15,6.15,0,0,0,1,2.09,4.51,4.51,0,0,0,1.65,1.35,5.18,5.18,0,0,0,2.29.48,4.91,4.91,0,0,0,2.41-.55,4.7,4.7,0,0,0,1.64-1.49,6.66,6.66,0,0,0,.93-2.1A9.75,9.75,0,0,0,232.92,85.67Z"/><path
            class="cls-2"
            d="M12.72,78.81a29.45,29.45,0,0,0,4.08,3.47,69.68,69.68,0,0,0,25.58-8.63c-.73.07-1.47.1-2.24.1q-10.39,0-16.58-7.66t-6.19-21.8q0-14.14,6.19-21.81t16.58-7.66q10.39,0,16.49,7.69t6.11,21.78A43.71,43.71,0,0,1,60.61,58.7,69.67,69.67,0,0,0,77,23.92a35.58,35.58,0,0,0-9.4-14.15Q58.08,0,40.14,0T12.72,9.77Q0,21.29,0,44.29,0,66.82,12.72,78.81Z"/><path class="cls-3" d="M56.8,67.17A73.23,73.23,0,0,1,21.22,84.85q7.86,3.72,18.92,3.72,17.94,0,27.42-9.76,12.66-12,12.67-34.52A66.14,66.14,0,0,0,78.89,30.6,73.14,73.14,0,0,1,56.8,67.17Z"/><path
            class="cls-4"
            d="M103.42,21.91a17.78,17.78,0,0,1,13.26-5.33q10.77,0,15.75,7.14a16.08,16.08,0,0,1,2.86,7,.89.89,0,0,1-.88,1H127a.9.9,0,0,1-.85-.64,11.43,11.43,0,0,0-2-4c-1.6-1.88-4-2.81-7.14-2.81a8.78,8.78,0,0,0-7.59,4q-2.79,4-2.78,11.22t2.93,10.88A9.22,9.22,0,0,0,117,54a8.44,8.44,0,0,0,7.07-3.1,12.85,12.85,0,0,0,2-4.36.89.89,0,0,1,.85-.65h7.22a.89.89,0,0,1,.86,1.09,19,19,0,0,1-5.72,10.38,17.2,17.2,0,0,1-12.2,4.42q-9.19,0-14.47-6T97.43,39.32Q97.43,28,103.42,21.91Z"/><path
            class="cls-5"
            d="M143.47,17.4h7.38a.89.89,0,0,1,.89.89v25.6a15,15,0,0,0,1,6.49Q154.43,54,159.9,54T167,50.38a15,15,0,0,0,1-6.49V18.29a.88.88,0,0,1,.88-.89h7.39a.88.88,0,0,1,.88.89V43.91q0,6.89-2.13,10.71-4,7-15.16,7t-15.19-7q-2.13-3.82-2.13-10.71V18.29A.89.89,0,0,1,143.47,17.4Z"/><path
            class="cls-6"
            d="M213.5,18.51a10.72,10.72,0,0,1,4,3,13.11,13.11,0,0,1,2.17,3.63,12.08,12.08,0,0,1,.8,4.53,13,13,0,0,1-1.55,6,8.18,8.18,0,0,1-3.46,3.48.88.88,0,0,0,0,1.53,7.19,7.19,0,0,1,2.6,2.6q1.24,2.2,1.24,6.75V53a21.62,21.62,0,0,0,.24,4,3.67,3.67,0,0,0,1.31,2.22.85.85,0,0,1,.35.67v.65h-9.27a.9.9,0,0,1-.86-.66c-.18-.65-.31-1.21-.4-1.65a21.72,21.72,0,0,1-.38-3.72l-.06-4c0-2.75-.51-4.59-1.43-5.5s-2.62-1.38-5.13-1.38h-7.92a.89.89,0,0,0-.88.89V59.65a.88.88,0,0,1-.89.88h-7a.88.88,0,0,1-.89-.88V18.29a.89.89,0,0,1,.89-.89h19.74A18.92,18.92,0,0,1,213.5,18.51Zm-18.63,7.27v9.81a.89.89,0,0,0,.88.89h8.82a10.28,10.28,0,0,0,4.33-.7q2.57-1.23,2.56-4.86c0-2.61-.83-4.37-2.47-5.27a9.06,9.06,0,0,0-4.17-.76h-9.07A.89.89,0,0,0,194.87,25.78Z"/><path
            class="cls-7"
            d="M233.72,56.67a15,15,0,0,0,2.1,1.79A35.93,35.93,0,0,0,249,54c-.37,0-.76,0-1.15,0a10.42,10.42,0,0,1-8.54-4q-3.18-3.94-3.18-11.23t3.18-11.23a10.42,10.42,0,0,1,8.54-3.94,10.26,10.26,0,0,1,8.49,4q3.15,4,3.15,11.21a22.52,22.52,0,0,1-1.1,7.42A35.82,35.82,0,0,0,266.8,28.4,18.34,18.34,0,0,0,262,21.11q-4.87-5-14.12-5t-14.12,5q-6.56,5.94-6.55,17.78Q227.17,50.5,233.72,56.67Z"/><path class="cls-8" d="M256.42,50.68a37.74,37.74,0,0,1-18.32,9.1,22.53,22.53,0,0,0,9.74,1.92q9.24,0,14.12-5,6.53-6.16,6.52-17.78a34.36,34.36,0,0,0-.68-7A37.73,37.73,0,0,1,256.42,50.68Z"/></g>
    </g>
</svg>
