<svg viewBox="0 0 540.1 179.85">
    <defs>
        <style>
            .cls-1 {
                fill: #5f4b8c;
            }
            .cls-2 {
                fill: url("#linear-gradient");
            }
            .cls-3 {
                fill: url("#linear-gradient-2");
            }
            .cls-4 {
                fill: url("#linear-gradient-3");
            }
            .cls-5 {
                fill: url("#linear-gradient-4");
            }
            .cls-6 {
                fill: url("#New_Gradient_Swatch_1");
            }
            .cls-7 {
                fill: url("#linear-gradient-5");
            }
            .cls-8 {
                fill: url("#New_Gradient_Swatch_1-2");
            }
        </style>
        <linearGradient id="linear-gradient" x1="231.22" y1="107.03" x2="231.22" y2="50.93" gradientUnits="userSpaceOnUse"><stop offset="0.46" stop-color="#5f4b8c"/><stop offset="1" stop-color="#7c6a9e"/></linearGradient><linearGradient id="linear-gradient-2" x1="319.59" y1="107.03" x2="319.59" y2="50.93" xlink:href="#linear-gradient"/><linearGradient id="linear-gradient-3" x1="408.42" y1="107.03" x2="408.42" y2="50.93" xlink:href="#linear-gradient"/>
        <linearGradient id="linear-gradient-4" x1="93.05" y1="130.68" x2="57.79" y2="7.6" gradientUnits="userSpaceOnUse"><stop offset="0.64" stop-color="#5f4b8c"/><stop offset="1" stop-color="#8372a4"/></linearGradient>
        <linearGradient id="New_Gradient_Swatch_1" x1="97.1" y1="157.29" x2="145.18" y2="60.49" gradientUnits="userSpaceOnUse"><stop offset="0.46" stop-color="#85de76"/><stop offset="1" stop-color="#a4e696"/></linearGradient><linearGradient id="linear-gradient-5" x1="504.13" y1="99.96" x2="485.97" y2="36.57" xlink:href="#linear-gradient-4"/><linearGradient id="New_Gradient_Swatch_1-2" x1="506.22" y1="113.66" x2="530.98" y2="63.81" xlink:href="#New_Gradient_Swatch_1"/></defs>
    <title>CuroStudio</title>
    <g id="Layer_2" data-name="Layer 2">
        <g id="Layer_1-2" data-name="Layer 1"><path class="cls-1" d="M225.4,152.9h2.3a.28.28,0,0,1,.27.19l7.2,19a.29.29,0,0,0,.54,0l7.2-19a.28.28,0,0,1,.27-.19h2.3a.29.29,0,0,1,.27.39L237,176a.3.3,0,0,1-.27.19h-2.61a.29.29,0,0,1-.27-.19l-8.67-22.68A.29.29,0,0,1,225.4,152.9Z"/><path
            class="cls-1"
            d="M251.86,165.16a.3.3,0,0,0-.3.3,12.48,12.48,0,0,0,.49,3.27,8.65,8.65,0,0,0,1.46,2.91,7,7,0,0,0,2.45,2,7.54,7.54,0,0,0,3.41.74A7.39,7.39,0,0,0,263.9,173a6.6,6.6,0,0,0,2.46-3.74.3.3,0,0,1,.27-.21H269a.29.29,0,0,1,.28.38,13.87,13.87,0,0,1-1.18,2.69,9.27,9.27,0,0,1-2,2.47,8.79,8.79,0,0,1-2.87,1.64,11.65,11.65,0,0,1-3.86.58,11.28,11.28,0,0,1-4.81-.94,9.16,9.16,0,0,1-3.32-2.58,10.86,10.86,0,0,1-1.93-3.86,17.48,17.48,0,0,1-.63-4.78,15.38,15.38,0,0,1,.74-4.81,12.57,12.57,0,0,1,2.11-3.93,9.83,9.83,0,0,1,3.35-2.64,10,10,0,0,1,4.49-1,9.28,9.28,0,0,1,7.54,3.3c1.78,2.15,2.68,5.24,2.7,9.29a.31.31,0,0,1-.3.3Zm14.57-2.25a.31.31,0,0,0,.3-.31,10.54,10.54,0,0,0-.47-2.9,7.46,7.46,0,0,0-1.39-2.6,6.62,6.62,0,0,0-2.31-1.75,7.39,7.39,0,0,0-3.19-.65,7.11,7.11,0,0,0-3.17.67,7.37,7.37,0,0,0-2.33,1.79,9.16,9.16,0,0,0-1.55,2.61,11.83,11.83,0,0,0-.72,2.81.29.29,0,0,0,.29.33Z"/><path
            class="cls-1"
            d="M277.26,176.16h-2.11a.29.29,0,0,1-.29-.29V153.19a.29.29,0,0,1,.29-.29h2.11a.29.29,0,0,1,.29.29v2.94a16.93,16.93,0,0,1,3.35-2.78,7.66,7.66,0,0,1,4.15-1.08,10.61,10.61,0,0,1,4,.74,6.9,6.9,0,0,1,3.1,2.58,5.74,5.74,0,0,1,1,2.58,22.55,22.55,0,0,1,.16,2.77v14.93a.29.29,0,0,1-.29.29H290.9a.28.28,0,0,1-.28-.29V161a6.9,6.9,0,0,0-1.4-4.71q-1.38-1.58-4.62-1.57a6.44,6.44,0,0,0-2.29.38,7,7,0,0,0-1.86,1,6.87,6.87,0,0,0-1.42,1.43,6.35,6.35,0,0,0-.89,1.71,8.63,8.63,0,0,0-.5,2.15q-.09,1-.09,2.25v12.24A.29.29,0,0,1,277.26,176.16Z"/><path
            class="cls-1"
            d="M308,176.25a12.07,12.07,0,0,0-1.3.31,6.73,6.73,0,0,1-1.8.22,4.24,4.24,0,0,1-3.07-1c-.71-.67-1.06-1.87-1.06-3.61V155.43a.29.29,0,0,0-.29-.29h-2.7a.28.28,0,0,1-.29-.28v-1.67a.29.29,0,0,1,.29-.29h2.7a.29.29,0,0,0,.29-.29v-5.89a.28.28,0,0,1,.29-.28h2.12a.28.28,0,0,1,.29.28v5.89a.29.29,0,0,0,.28.29h3.78a.29.29,0,0,1,.29.29v1.67a.28.28,0,0,1-.29.28h-3.78a.29.29,0,0,0-.28.29v15.65c0,.57,0,1.06,0,1.48a2.51,2.51,0,0,0,.27,1,1.27,1.27,0,0,0,.7.58,3.8,3.8,0,0,0,1.32.18,6.89,6.89,0,0,0,1.1-.09c.37-.06.74-.13,1.1-.22Z"/><path
            class="cls-1"
            d="M328.35,152.9h2.12a.29.29,0,0,1,.28.29v22.68a.29.29,0,0,1-.28.29h-2.12a.29.29,0,0,1-.29-.29v-3c-.36.42-.76.86-1.21,1.31a9.64,9.64,0,0,1-1.55,1.23,9.15,9.15,0,0,1-2,.94,8.55,8.55,0,0,1-2.7.38,10.09,10.09,0,0,1-3.9-.65,6.31,6.31,0,0,1-2.54-1.82,7.12,7.12,0,0,1-1.39-2.71,12.48,12.48,0,0,1-.43-3.39v-15a.29.29,0,0,1,.29-.29h2.12a.28.28,0,0,1,.28.29v15a6.81,6.81,0,0,0,1.4,4.61q1.38,1.59,4.58,1.59a6.72,6.72,0,0,0,3-.65,6.21,6.21,0,0,0,2.22-1.82,8.75,8.75,0,0,0,1.4-2.78,12.43,12.43,0,0,0,.49-3.55V153.19A.29.29,0,0,1,328.35,152.9Z"/><path
            class="cls-1"
            d="M339.8,176.16h-2.11a.29.29,0,0,1-.29-.29V153.19a.29.29,0,0,1,.29-.29h2.11a.29.29,0,0,1,.29.29v4.06h.09a7.81,7.81,0,0,1,2.9-3.88,8.63,8.63,0,0,1,4.38-1.1.31.31,0,0,1,.31.3v2.34a.3.3,0,0,1-.29.28,7.48,7.48,0,0,0-3.48.72,6.23,6.23,0,0,0-2.36,2.06,8.21,8.21,0,0,0-1.21,3.08,19.36,19.36,0,0,0-.34,3.7v11.12A.29.29,0,0,1,339.8,176.16Z"/><path
            class="cls-1"
            d="M354.17,165.16a.29.29,0,0,0-.29.3,12.08,12.08,0,0,0,.49,3.27,8.47,8.47,0,0,0,1.46,2.91,7.08,7.08,0,0,0,2.44,2,7.61,7.61,0,0,0,3.42.74,7.41,7.41,0,0,0,4.53-1.39,6.7,6.7,0,0,0,2.46-3.74A.28.28,0,0,1,369,169h2.39a.29.29,0,0,1,.28.38,14.51,14.51,0,0,1-1.18,2.69,9.47,9.47,0,0,1-2,2.47,8.89,8.89,0,0,1-2.87,1.64,11.65,11.65,0,0,1-3.86.58,11.28,11.28,0,0,1-4.81-.94,9.08,9.08,0,0,1-3.32-2.58,10.86,10.86,0,0,1-1.93-3.86,17.48,17.48,0,0,1-.63-4.78,15.38,15.38,0,0,1,.74-4.81,12.37,12.37,0,0,1,2.11-3.93,9.73,9.73,0,0,1,3.35-2.64,10,10,0,0,1,4.49-1,9.28,9.28,0,0,1,7.54,3.3c1.78,2.15,2.68,5.24,2.69,9.29a.3.3,0,0,1-.29.3Zm14.58-2.25a.3.3,0,0,0,.29-.31,10.54,10.54,0,0,0-.46-2.9,7.48,7.48,0,0,0-1.4-2.6,6.44,6.44,0,0,0-2.31-1.75,7.35,7.35,0,0,0-3.18-.65,7.08,7.08,0,0,0-3.17.67,7.37,7.37,0,0,0-2.33,1.79,8.94,8.94,0,0,0-1.55,2.61,12.34,12.34,0,0,0-.73,2.81.3.3,0,0,0,.3.33Z"/><path
            class="cls-1"
            d="M391,168.88a.3.3,0,0,1,.28.23,6.62,6.62,0,0,0,2.21,4,7.67,7.67,0,0,0,4.7,1.24,8.15,8.15,0,0,0,2.56-.36,5.17,5.17,0,0,0,1.77-1,4.22,4.22,0,0,0,1.05-1.36,3.76,3.76,0,0,0,.36-1.62,3,3,0,0,0-1.1-2.54,8.23,8.23,0,0,0-2.76-1.3c-1.11-.31-2.3-.58-3.59-.81a17,17,0,0,1-3.59-1,7.13,7.13,0,0,1-2.76-1.93,5.18,5.18,0,0,1-1.1-3.54,6.09,6.09,0,0,1,2.13-4.79,8.89,8.89,0,0,1,6-1.86,10.36,10.36,0,0,1,6.13,1.68,7.54,7.54,0,0,1,2.8,5.29.3.3,0,0,1-.29.35h-2.16a.29.29,0,0,1-.28-.25,4.9,4.9,0,0,0-2-3.55,7.67,7.67,0,0,0-4.25-1.09,6.06,6.06,0,0,0-3.9,1.09,3.57,3.57,0,0,0-1.35,2.9,2.82,2.82,0,0,0,1.1,2.4,8.67,8.67,0,0,0,2.76,1.35c1.11.34,2.31.65,3.59.92a17.74,17.74,0,0,1,3.59,1.14,8,8,0,0,1,2.77,2,5.17,5.17,0,0,1,1.1,3.5,5.94,5.94,0,0,1-.72,2.95,6.29,6.29,0,0,1-2,2.13,9.29,9.29,0,0,1-3,1.28,16.14,16.14,0,0,1-3.8.42,10.41,10.41,0,0,1-3.66-.6,8,8,0,0,1-2.71-1.69,7.62,7.62,0,0,1-1.75-2.51,8.81,8.81,0,0,1-.7-2.78.31.31,0,0,1,.3-.32Z"/><path
            class="cls-1"
            d="M420.27,176.25a12.07,12.07,0,0,0-1.3.31,6.7,6.7,0,0,1-1.79.22,4.25,4.25,0,0,1-3.08-1c-.7-.67-1.05-1.87-1.05-3.61V155.43a.29.29,0,0,0-.29-.29h-2.7a.28.28,0,0,1-.29-.28v-1.67a.29.29,0,0,1,.29-.29h2.7a.29.29,0,0,0,.29-.29v-5.89a.27.27,0,0,1,.28-.28h2.12a.28.28,0,0,1,.29.28v5.89a.29.29,0,0,0,.29.29h3.78a.28.28,0,0,1,.28.29v1.67a.27.27,0,0,1-.28.28H416a.29.29,0,0,0-.29.29v15.65c0,.57,0,1.06,0,1.48a2.51,2.51,0,0,0,.27,1,1.31,1.31,0,0,0,.7.58,3.84,3.84,0,0,0,1.32.18,6.89,6.89,0,0,0,1.1-.09c.38-.06.75-.13,1.1-.22Z"/><path
            class="cls-1"
            d="M440.63,152.9h2.12a.29.29,0,0,1,.29.29v22.68a.29.29,0,0,1-.29.29h-2.12a.29.29,0,0,1-.29-.29v-3c-.36.42-.76.86-1.21,1.31a9.22,9.22,0,0,1-1.55,1.23,8.75,8.75,0,0,1-2,.94,8.53,8.53,0,0,1-2.69.38,10.15,10.15,0,0,1-3.91-.65,6.38,6.38,0,0,1-2.54-1.82A7.12,7.12,0,0,1,425,171.6a12.9,12.9,0,0,1-.42-3.39v-15a.28.28,0,0,1,.28-.29H427a.29.29,0,0,1,.29.29v15a6.81,6.81,0,0,0,1.39,4.61c.93,1.06,2.45,1.59,4.58,1.59a6.69,6.69,0,0,0,3-.65,6.16,6.16,0,0,0,2.23-1.82,8.74,8.74,0,0,0,1.39-2.78,12.09,12.09,0,0,0,.49-3.55V153.19A.29.29,0,0,1,440.63,152.9Z"/><path
            class="cls-1"
            d="M467.79,143.83h2.12a.29.29,0,0,1,.29.29v31.75a.29.29,0,0,1-.29.29h-2.12a.29.29,0,0,1-.29-.29v-3.8h-.09a7.09,7.09,0,0,1-1.5,2,9,9,0,0,1-2,1.46,10.73,10.73,0,0,1-2.27.9,8.76,8.76,0,0,1-2.29.31,11.08,11.08,0,0,1-4.8-.94,9,9,0,0,1-3.26-2.58,10.6,10.6,0,0,1-1.86-3.88,19,19,0,0,1-.58-4.81,17.26,17.26,0,0,1,.63-4.67,11.78,11.78,0,0,1,1.9-3.93,9.45,9.45,0,0,1,3.24-2.69,9.91,9.91,0,0,1,4.6-1,10.83,10.83,0,0,1,4.74,1.1,8.37,8.37,0,0,1,3,2.48.28.28,0,0,0,.52-.16V144.12A.29.29,0,0,1,467.79,143.83Zm-.29,20.61a13.12,13.12,0,0,0-.53-3.75,9.8,9.8,0,0,0-1.55-3.1,7.7,7.7,0,0,0-2.47-2.11,6.87,6.87,0,0,0-3.3-.78,7.44,7.44,0,0,0-3.64.83,7.08,7.08,0,0,0-2.51,2.26,9.86,9.86,0,0,0-1.44,3.35,15.14,15.14,0,0,0-.36,4.11,11.29,11.29,0,0,0,.61,3.88A8.21,8.21,0,0,0,454,172a7.18,7.18,0,0,0,2.51,1.77,7.93,7.93,0,0,0,3.15.61,7.37,7.37,0,0,0,3.37-.76,7.1,7.1,0,0,0,2.46-2.09,9.65,9.65,0,0,0,1.51-3.14A14.59,14.59,0,0,0,467.5,164.44Z"/><path
            class="cls-1"
            d="M477.25,147.54v-3.42a.29.29,0,0,1,.29-.29h2.38a.29.29,0,0,1,.29.29v3.42a.29.29,0,0,1-.29.29h-2.38A.29.29,0,0,1,477.25,147.54Zm.13,28.33V153.19a.29.29,0,0,1,.29-.29h2.12a.29.29,0,0,1,.29.29v22.68a.29.29,0,0,1-.29.29h-2.12A.29.29,0,0,1,477.38,175.87Z"/><path
            class="cls-1"
            d="M496.19,176.78a12.34,12.34,0,0,1-4.2-.8,9.5,9.5,0,0,1-3.41-2.29,11.06,11.06,0,0,1-2.31-3.82,15.27,15.27,0,0,1-.85-5.34,16.34,16.34,0,0,1,.67-4.78,11.25,11.25,0,0,1,2-3.89,9.62,9.62,0,0,1,3.37-2.62,10.71,10.71,0,0,1,4.71-1,10.84,10.84,0,0,1,4.76,1,9.68,9.68,0,0,1,3.37,2.6,10.83,10.83,0,0,1,2,3.88,17.36,17.36,0,0,1,.65,4.81,15.57,15.57,0,0,1-.77,5,11.45,11.45,0,0,1-2.17,3.86,9.87,9.87,0,0,1-3.42,2.49A10.93,10.93,0,0,1,496.19,176.78Zm7.9-12.25a15.78,15.78,0,0,0-.45-3.86,9.08,9.08,0,0,0-1.39-3.12,6.7,6.7,0,0,0-2.42-2.09,7.87,7.87,0,0,0-3.64-.76,7.27,7.27,0,0,0-3.61.83,7,7,0,0,0-2.45,2.19,9.78,9.78,0,0,0-1.39,3.15,14.8,14.8,0,0,0-.45,3.66,14.28,14.28,0,0,0,.52,4,9.24,9.24,0,0,0,1.5,3.12,6.74,6.74,0,0,0,2.47,2,7.7,7.7,0,0,0,3.41.72,7.45,7.45,0,0,0,3.62-.83,7,7,0,0,0,2.44-2.22,10,10,0,0,0,1.39-3.15A14.5,14.5,0,0,0,504.09,164.53Z"/><path
            class="cls-2"
            d="M204.94,44.49q10.59-10.82,26.92-10.82,21.87,0,32,14.5a32.76,32.76,0,0,1,5.81,14.28,1.81,1.81,0,0,1-1.79,2.06h-15a1.81,1.81,0,0,1-1.72-1.3A23.42,23.42,0,0,0,247.05,55q-4.89-5.7-14.49-5.7a17.87,17.87,0,0,0-15.43,8.05q-5.64,8.06-5.64,22.78t6,22.08a18.67,18.67,0,0,0,15.14,7.33q9.41,0,14.35-6.29a25.81,25.81,0,0,0,4.17-8.85,1.8,1.8,0,0,1,1.73-1.31h14.65a1.82,1.82,0,0,1,1.76,2.2,38.94,38.94,0,0,1-11.61,21.09q-9.67,9-24.78,9-18.69,0-29.39-12.12t-10.7-33.39Q192.77,56.9,204.94,44.49Z"/><path
            class="cls-3"
            d="M286.25,35.34h15a1.8,1.8,0,0,1,1.8,1.8v52q0,9,2.13,13.18,3.31,7.36,14.44,7.36T334,102.3q2.13-4.15,2.13-13.18v-52a1.8,1.8,0,0,1,1.8-1.8h15a1.8,1.8,0,0,1,1.8,1.8v52q0,14-4.33,21.74-8.07,14.27-30.79,14.26t-30.84-14.26q-4.33-7.78-4.33-21.74v-52A1.8,1.8,0,0,1,286.25,35.34Z"/><path
            class="cls-4"
            d="M428.45,37.59a21.74,21.74,0,0,1,8.2,6.12,27.39,27.39,0,0,1,4.4,7.37,24.56,24.56,0,0,1,1.62,9.21,26.23,26.23,0,0,1-3.15,12.27,16.69,16.69,0,0,1-7,7,1.79,1.79,0,0,0-.06,3.12A14.48,14.48,0,0,1,437.71,88q2.52,4.48,2.53,13.69v5.88a44.52,44.52,0,0,0,.48,8.14,7.42,7.42,0,0,0,2.66,4.5,1.76,1.76,0,0,1,.72,1.37v1.32H425.26a1.82,1.82,0,0,1-1.74-1.34c-.36-1.33-.63-2.45-.81-3.35a41.83,41.83,0,0,1-.77-7.55l-.12-8.14q-.12-8.37-2.9-11.17T408.5,88.57H392.42a1.81,1.81,0,0,0-1.8,1.8v30.74a1.79,1.79,0,0,1-1.8,1.8H374.54a1.8,1.8,0,0,1-1.8-1.8v-84a1.8,1.8,0,0,1,1.8-1.8h40.09C420.62,35.45,425.22,36.21,428.45,37.59ZM390.62,52.35V72.27a1.8,1.8,0,0,0,1.8,1.8h17.9q5.87,0,8.8-1.42,5.19-2.5,5.19-9.86,0-8-5-10.7-2.82-1.55-8.46-1.54H392.42A1.8,1.8,0,0,0,390.62,52.35Z"/><path
            class="cls-5"
            d="M25.83,160a58.09,58.09,0,0,0,8.28,7,141.46,141.46,0,0,0,51.94-17.51c-1.48.12-3,.2-4.54.2q-21.11,0-33.67-15.57T35.28,89.92q0-28.69,12.56-44.27T81.51,30.09q21.09,0,33.49,15.62t12.39,44.21q0,16.92-4.32,29.27a141.52,141.52,0,0,0,33.21-70.62,72.5,72.5,0,0,0-19.09-28.74Q117.95,0,81.51,0T25.83,19.83Q0,43.23,0,89.92,0,135.7,25.83,160Z"/><path class="cls-6" d="M115.32,136.4A148.6,148.6,0,0,1,43.1,172.29q15.93,7.54,38.41,7.56,36.42,0,55.68-19.83,25.71-24.33,25.71-70.1a134.14,134.14,0,0,0-2.71-27.79A148.49,148.49,0,0,1,115.32,136.4Z"/><path
            class="cls-7"
            d="M469.51,115.07a30.23,30.23,0,0,0,4.27,3.63,72.81,72.81,0,0,0,26.74-9c-.76.06-1.53.1-2.33.1q-10.87,0-17.34-8T474.38,79q0-14.79,6.47-22.8t17.34-8q10.86,0,17.24,8T521.82,79A45.79,45.79,0,0,1,519.59,94a72.8,72.8,0,0,0,17.1-36.37,37.26,37.26,0,0,0-9.83-14.8q-9.92-10.2-28.67-10.21T469.51,42.87Q456.21,54.93,456.21,79,456.21,102.54,469.51,115.07Z"/><path class="cls-8" d="M515.6,102.9a76.52,76.52,0,0,1-37.19,18.49q8.2,3.89,19.78,3.89,18.75,0,28.67-10.21Q540.11,102.55,540.1,79a68.49,68.49,0,0,0-1.4-14.31A76.34,76.34,0,0,1,515.6,102.9Z"/></g>
    </g>
</svg>
