<svg xmlns="http://www.w3.org/2000/svg" data-name="Layer 1" viewBox="0 0 125 37">
  <path d="M18.13 23.07a1.8 1.8 0 0 1-1.6.63h-.69a2.92 2.92 0 0 0-.6 0l-4 .3a.46.46 0 0 1-.44-.5 1.38 1.38 0 0 1 .13-.57c.08-.17.38-.36.91-.55s.7-.38.7-.63a.82.82 0 0 0-.09-.34.47.47 0 0 0 .27-.39 1.15 1.15 0 0 0-.12-.41 1.3 1.3 0 0 1-.11-.42.57.57 0 0 1 .28-.46 9 9 0 0 1 0-1.36V17a1.15 1.15 0 0 0 0-.26 1.18 1.18 0 0 0-.18-.59l-.31-.51h-.23a1.71 1.71 0 0 1-.59-.13 4 4 0 0 0-.56-.2.82.82 0 0 1 0-.22.66.66 0 0 1 .63-.7l4.12.31c-.07.3-.41.6-1 .9s-.85.58-.85.9a1.56 1.56 0 0 0 .18.65.25.25 0 0 0-.18.26 1.64 1.64 0 0 0 0 .34.75.75 0 0 1 .14.71c-.1.53-.15.82-.15.86a.93.93 0 0 0 .16.56q.27.12.27.27a.52.52 0 0 1-.1.24 2.35 2.35 0 0 0-.15.26l-.15.15a1.16 1.16 0 0 0 .3.18c.14.07.21.16.21.26a.45.45 0 0 1-.05.17h-.08a.29.29 0 0 0-.21.12l-.17.2a1.67 1.67 0 0 1 .58.43.93.93 0 0 0 .62.35h.17l1-.1a.72.72 0 0 0 .68-.52.47.47 0 0 1-.26-.39 1 1 0 0 1 .13-.41 1 1 0 0 0 .13-.42.51.51 0 0 0-.31-.44l.4-.41a.76.76 0 0 1 .55-.28.68.68 0 0 1 .27.07 1.7 1.7 0 0 1 .16.61v1.21a.79.79 0 0 0-.15.46 1.94 1.94 0 0 0 .15.61 2.14 2.14 0 0 1 .19.57zM26.17 22a1 1 0 0 1 .11.46c0 .57-.47 1.07-1.41 1.49a2.29 2.29 0 0 0-.58-.17 2 2 0 0 1-.56-.15.6.6 0 0 1-.33-.49A3.87 3.87 0 0 1 21 24a5.84 5.84 0 0 1-1.85-.33 5.75 5.75 0 0 0-.42-.84 2 2 0 0 1-.27-.91 1.61 1.61 0 0 1 0-.37 1.63 1.63 0 0 1 1.29-1.24l2-.22a2.09 2.09 0 0 0 1.63-1 .64.64 0 0 0 .07-.28c0-.32-.3-.55-.9-.7-.08 0-.18 0-.32.16a.29.29 0 0 0-.29-.16h-.34l-.17.15a.71.71 0 0 0-.38-.16c-.19 0-.36.2-.5.59s-.3.66-.42.71h-.8a.5.5 0 0 1-.51-.48c.11-.05.17-.11.17-.18a.55.55 0 0 0-.09-.22.44.44 0 0 1-.08-.25c.05 0 .32-.32.81-.83a2.33 2.33 0 0 1 1-.65 10 10 0 0 0 1.49.17 4.58 4.58 0 0 1 1.41.29 1.89 1.89 0 0 1 1 1V20a7.46 7.46 0 0 0 .17 1.71 1.16 1.16 0 0 1-.17.35.78.78 0 0 0-.17.36.33.33 0 0 0 .17.26.8.8 0 0 0 .82-.32V22a.28.28 0 0 1 .17-.29.31.31 0 0 1 .13 0 .39.39 0 0 1 .26.12zm-2.94-1.31l-.51.24a1.2 1.2 0 0 0-.47.41.57.57 0 0 0-.43-.17 2 2 0 0 0-.51.11 1.62 1.62 0 0 1-.48.12.37.37 0 0 1-.21-.06.49.49 0 0 1-.3.4l-.52.26a1.71 1.71 0 0 0 1.37.53 6.16 6.16 0 0 0 1.4-.21 1.59 1.59 0 0 0 .66-1.62zm12.06-3.18a2 2 0 0 1-.68.58c-.36.23-.54.44-.54.65a.7.7 0 0 0 .12.35 1.3 1.3 0 0 0-.49 1.09v.61a2 2 0 0 1-.15.81.24.24 0 0 1 .05.16 1 1 0 0 1-.11.35 1.14 1.14 0 0 0-.1.4.46.46 0 0 0 .16.35.27.27 0 0 0-.3.16v.34c0 .16 0 .25-.14.29l-1.43-.15a.68.68 0 0 0 .07-.29 1.15 1.15 0 0 0-.29-.57 1.06 1.06 0 0 1-.25-.73 1.74 1.74 0 0 1-.4.17q-.27.09-.27.3a.61.61 0 0 0 0 .17 1.67 1.67 0 0 0 .64.31.72.72 0 0 0-.68.22l-.39.52a.66.66 0 0 1-.55.3 1.23 1.23 0 0 1-.43-.09c-.23-.95-.47-1.91-.7-2.87a18.09 18.09 0 0 0-.89-2.81.59.59 0 0 1-.21 0 .42.42 0 0 1-.37-.24l-.2-.43a.5.5 0 0 1 0-.12.58.58 0 0 1 .24-.44 1.23 1.23 0 0 1 .41-.24H29c.65.07 1 .36 1 .88a1.85 1.85 0 0 1 0 .23h-.07c-.38 0-.57.25-.57.77a1.34 1.34 0 0 0 .16.66c0 .09 0 .19.16.31l-.16.16a.28.28 0 0 0 .29.16h.35a1.32 1.32 0 0 0 .31-.65.57.57 0 0 1 .47-.48 1 1 0 0 1 .39-.13c.15 0 .26.14.35.43s.22.43.38.43a.72.72 0 0 0 .3-.07 2.39 2.39 0 0 1-.22.23.45.45 0 0 0-.12.28.25.25 0 0 0-.02.13c.05.11.21.16.48.16a.49.49 0 0 0 .32-.46 1.46 1.46 0 0 0-.07-.39 1.32 1.32 0 0 1-.08-.39c0-.23.15-.39.47-.5a.71.71 0 0 1-.63-.5c-.15-.32-.33-.48-.55-.48a.81.81 0 0 0-.25 0 1.43 1.43 0 0 1 .79-.4l.95-.23h.44a1.57 1.57 0 0 1 1.42.7zm-5.2 1.4h-.16v-.31h.16zm16.02-1.04c0 .08 0 .18-.16.31a.69.69 0 0 0-.43-.17.82.82 0 0 0-.57.25 1.76 1.76 0 0 0-.42.56c-.1.35-.21.7-.32 1.05a2.12 2.12 0 0 1-.61 1c.13.12.18.23.15.31a1.93 1.93 0 0 1-.18-.85c0-.48.17-.77.5-.88a.28.28 0 0 0 .16-.29v-.33a.87.87 0 0 0-.43-.17h-1a1.49 1.49 0 0 0-.66 1.12 1.33 1.33 0 0 0 0 .28 1.48 1.48 0 0 0-.57.89c-.06.31-.11.63-.16.94a1.42 1.42 0 0 1-.68.85 11.68 11.68 0 0 1-.44 1.58q-.4 1.2-.51 1.56l.32.32a1.68 1.68 0 0 0-1.1.36 2.28 2.28 0 0 1-1 .44h-.19l-1.05-.51a1.34 1.34 0 0 1-.68-.91 1.83 1.83 0 0 1 0-.33 1.19 1.19 0 0 1 .76-1.25l.59.12a.6.6 0 0 1 .5.35.52.52 0 0 1 0 .21 1 1 0 0 1-.13.46l-.22.43a.29.29 0 0 0 .29.16h.35a1 1 0 0 1 .2-.18.31.31 0 0 0 .12-.22.25.25 0 0 0 0-.08l-.16-.16a1.77 1.77 0 0 0 .94-1.24c-.45-1.31-.76-2.18-.92-2.63-.35-.89-.72-1.74-1.12-2.54h-.22a1.77 1.77 0 0 1-1.2-.5v-.62h3.62l.31.78a2.29 2.29 0 0 1 1.73-.94 7.13 7.13 0 0 0 1.39.11 2 2 0 0 1 1.28.36.72.72 0 0 0 .29.06 1.75 1.75 0 0 0 .5-.11 1.7 1.7 0 0 1 .46-.11.58.58 0 0 1 .56.29zm-5.34 1.74a1 1 0 0 0-.17-.33.73.73 0 0 1-.15-.35.32.32 0 0 1 .16-.25.72.72 0 0 1-.44.14 1.21 1.21 0 0 1-.82-.33.52.52 0 0 0-.22.42 2.17 2.17 0 0 0 .21.69 2.21 2.21 0 0 1 .21.79 1.06 1.06 0 0 1 0 .31.75.75 0 0 1 .2.4c0 .17.13.26.25.26a.45.45 0 0 0 .18 0c.11 0 .16-.18.16-.46h-.48a.42.42 0 0 1-.16-.32.31.31 0 0 1 .3-.18h.34a.34.34 0 0 1 0-.16.48.48 0 0 1 .21-.33zm.94 6.27c0 .08 0 .19-.16.32h-.32v-.32zm.81-1.26l-.49.16a2.58 2.58 0 0 1 .15-.7 2.39 2.39 0 0 0 .16-.7.84.84 0 0 0-.31-.64v-.62h.31c0 .08 0 .18-.16.31a1.19 1.19 0 0 1 .34.93v.95a1 1 0 0 0 0 .31zm-.34.8H42v-.33h.15zm1.09-2.68a.41.41 0 0 1-.31.16l-.15-.16a.24.24 0 0 1 .24-.16.21.21 0 0 1 .22.16zm.17-1.1c0 .08 0 .18-.17.32l-.15-.32zm9.56.19a.84.84 0 0 1 0 .27 1 1 0 0 1-.42.78 5.62 5.62 0 0 0-.73.7 2.53 2.53 0 0 1-1.41.42 4.82 4.82 0 0 1-1.4-.26l-1.38-.48a3.26 3.26 0 0 1-.88-2.36 7.64 7.64 0 0 1 .55-2.61l1-.94a1.89 1.89 0 0 1 1.2-.54h.6a3.56 3.56 0 0 1 2.88 2 3.87 3.87 0 0 1 .21 1 1.44 1.44 0 0 1-.36.94 4.53 4.53 0 0 1-1.2.16h-1.19a1.29 1.29 0 0 1-.68.16 3.13 3.13 0 0 1-.39 0A2.93 2.93 0 0 0 49 21a.77.77 0 0 0-.81.68l.26.23a.41.41 0 0 0 .27.12.27.27 0 0 0 .12 0c-.13.13-.18.24-.16.33l.25.23a.41.41 0 0 0 .27.12.27.27 0 0 0 .13-.05.36.36 0 0 1 .19-.05 1.31 1.31 0 0 1 .4.1 1.25 1.25 0 0 0 .4.1.5.5 0 0 0 .45-.3.68.68 0 0 0 .27.05 1.13 1.13 0 0 0 .77-.45c.27-.31.5-.46.67-.46a.92.92 0 0 1 .52.18zm-1.28-2.26a.75.75 0 0 0 0-.2.65.65 0 0 0-.18-.42l-.33-.34a2.74 2.74 0 0 0-1.21-.33 4.05 4.05 0 0 0-1 .16v.48c0 .12-.2.17-.48.17v.48a.18.18 0 0 1 .16-.09.71.71 0 0 1 .26.09.52.52 0 0 0 .24.1.16.16 0 0 0 .15-.1c.08 0 .19 0 .32.16a1.55 1.55 0 0 1 1-.12 2.27 2.27 0 0 0 1.11-.04zm9.16-1.16a2.18 2.18 0 0 0-.14.59 1.68 1.68 0 0 1-.17.61.64.64 0 0 1-.57.26.35.35 0 0 1-.14 0 .76.76 0 0 1-.63-.45 4.17 4.17 0 0 0-.39-.6l.31-.11a.62.62 0 0 0 .28-.18.58.58 0 0 0-.42-.18 1.41 1.41 0 0 0-.7.28l-.65.48a1.43 1.43 0 0 0-.73 1.33v.7a2.66 2.66 0 0 1-.14.9c0 .51.32.77.91.77h1.01a1.43 1.43 0 0 1 .72.15l-.3.59c-.4 0-1 .06-1.85.16a18.14 18.14 0 0 1-1.85.14 5.91 5.91 0 0 1-1.43-.18c-.09 0-.15-.15-.15-.38v-.5a.64.64 0 0 0 .41.17 1.48 1.48 0 0 0 .55-.19 1.55 1.55 0 0 1 .6-.19.93.93 0 0 1 .35.08.63.63 0 0 0 .14-.32 1.37 1.37 0 0 0 0-.37 1.28 1.28 0 0 1 0-.33c-.12-.12-.22-.18-.3-.16a.79.79 0 0 0 .25-.59.75.75 0 0 0-.25-.57.42.42 0 0 0 .3-.4 1.71 1.71 0 0 0-.15-.54 1.67 1.67 0 0 1-.15-.53h-.29a.43.43 0 0 0-.39-.3 2.09 2.09 0 0 0-.45.1 1.82 1.82 0 0 1-.5.11.76.76 0 0 1-.27-.05v-1.06a4.48 4.48 0 0 1 .9-.14 7.38 7.38 0 0 1 1 0h.94a.28.28 0 0 0 0 .15.46.46 0 0 0 .19.31 1.57 1.57 0 0 1 .28.29.77.77 0 0 1 .46-.15c.2 0 .31-.12.31-.25a.45.45 0 0 0 0-.18 6.4 6.4 0 0 1 1.22-.17 2.31 2.31 0 0 1 1.88.9zm7.31 5.05a7.36 7.36 0 0 1-2.79.47h-2.39a9 9 0 0 0-.93.05l-.37-.23a.78.78 0 0 1-.22-.38.59.59 0 0 1 0-.17.57.57 0 0 1 .49-.59 1.27 1.27 0 0 0 .62.16 3.26 3.26 0 0 0 .82-.15 3.94 3.94 0 0 1 .81-.15 2.44 2.44 0 0 1 0-.48v-1.54a4.81 4.81 0 0 0-.32-1.86 3.09 3.09 0 0 1-.78.12 1.37 1.37 0 0 1-1.16-.56c0-.27.06-.44.23-.52a1.81 1.81 0 0 1 .57-.08 1.1 1.1 0 0 0 .55-.15 3.74 3.74 0 0 1 1.64.33 4.9 4.9 0 0 0 1.62.42.34.34 0 0 1-.32.21h-.43a.52.52 0 0 0-.44.29v3.73a.86.86 0 0 0 .77.39 3.81 3.81 0 0 0 .6-.08 5 5 0 0 1 .63-.07 1.6 1.6 0 0 1 .39 0zm-2.54-8.34a4 4 0 0 0 0 .43 2.62 2.62 0 0 1 0 .43 1.25 1.25 0 0 1-.14.48 4.19 4.19 0 0 1-1.34.29 1.67 1.67 0 0 1-.6-1.11 1.06 1.06 0 0 1 .45-.82h.31a2.58 2.58 0 0 1 1.32.3zm1.94.44q0 .12-.15.3c-.25 0-.4 0-.44-.14l.29-.3c.12.11.22.16.3.14zm.16 5.8h-.08a.27.27 0 0 0-.2.12l-.18.19.3.3a.42.42 0 0 1-.3.15 1.57 1.57 0 0 0-.08-.54 2.5 2.5 0 0 1-.09-.57 1.94 1.94 0 0 1 0-.24h.45v.33a.25.25 0 0 0 .18.26zM67.59 20c-.25 0-.4-.05-.44-.15a.23.23 0 0 1 0-.21.25.25 0 0 1 .19-.09.21.21 0 0 1 .2.16zm.15-1.32v.06a.29.29 0 0 1-.12.2l-.19.17a.51.51 0 0 1-.29-.49.29.29 0 0 1 .14-.25h.08a.27.27 0 0 1 .19.11zm7.33 3.13a3.71 3.71 0 0 0-.43 1 1.21 1.21 0 0 1-.71.81h-.54a.58.58 0 0 0-.43.32L71 23.76c0-.23-.1-.35-.34-.35h-.14c-.18 0-.29-.05-.34-.14a1.88 1.88 0 0 0-.32.65 1.07 1.07 0 0 1-.35.08c-.18 0-.32-.14-.41-.43a.94.94 0 0 0-.37-.63.73.73 0 0 0 .34-.63v-.17a.53.53 0 0 1-.35-.54 1.06 1.06 0 0 1 .18-.6.74.74 0 0 1 .49-.16.73.73 0 0 1 .48.16 1.34 1.34 0 0 0 .49.79 4.75 4.75 0 0 0 .78.48 2 2 0 0 1 .67.52 1.4 1.4 0 0 0 1.42-.33c.53-.4.81-.62.85-.64a2.86 2.86 0 0 0-1.71-1l-2-.31a2.68 2.68 0 0 1-1.63-1 1.09 1.09 0 0 0 .19-.66 1.62 1.62 0 0 0-.19-.79 2.88 2.88 0 0 1 2.52-1.3 3 3 0 0 1 1.36.32l.56-.1a3.56 3.56 0 0 1 .58-.06 1.23 1.23 0 0 1 .65.16 4.72 4.72 0 0 1 .35 1.92v.43a.86.86 0 0 1-.82.33 2.32 2.32 0 0 0-.54-.86l-.75-.76a1.66 1.66 0 0 1-.46-.09 1.57 1.57 0 0 0-.45-.11.78.78 0 0 0-.22 0l-.32.32-.33-.35a.73.73 0 0 0-.49.4 6.15 6.15 0 0 1-.31.58 2.64 2.64 0 0 0 1.57.81l1.82.17a.58.58 0 0 0 .44.31h.54l.24.89a1.25 1.25 0 0 0 .39.74zM73 22l-.32-.15h.17zm9.74-.66a2.6 2.6 0 0 1-.38.37.62.62 0 0 0-.27.44.27.27 0 0 0 0 .12l.15.16c.13-.13.24-.18.32-.16s0 .11 0 .17c0 .24-.23.46-.69.67s-.81.47-.9.72a.63.63 0 0 1-.63.13l-.64-.14a.77.77 0 0 0-.44.14 3.47 3.47 0 0 1-.85-.69 1.47 1.47 0 0 1-.44-.93 1.09 1.09 0 0 1 0-.25.81.81 0 0 0 0-.15.72.72 0 0 0-.32-.63 2.61 2.61 0 0 0 .15-2.18c.12 0 .17-.2.17-.47a1 1 0 0 0-.88-.32h-.89c-.36 0-.54-.14-.54-.41a1.87 1.87 0 0 1 .12-.57 1.1 1.1 0 0 1 .9-.32h.41a1.07 1.07 0 0 0 .88-.31 1.81 1.81 0 0 1 0-1 1 1 0 0 0-.28-1 1.08 1.08 0 0 1 .78-.38 1 1 0 0 1 .78.38.83.83 0 0 0-.13.71l.15.7a.67.67 0 0 1-.18.47 1.19 1.19 0 0 0 1.12.49h.83a1.27 1.27 0 0 1 .73.17.92.92 0 0 1 .3.79 1.26 1.26 0 0 1-1 .31 4.23 4.23 0 0 1-.45 0h-.45c-.53 0-.8.17-.8.53v.27a.34.34 0 0 0-.15.26.71.71 0 0 0 .15.34.62.62 0 0 1 .16.32h.17c.24 0 .44.2.62.59s.3.59.4.59.3-.18.53-.53a.66.66 0 0 1 .3-.07.86.86 0 0 1 .56.31 1.6 1.6 0 0 0 .63.36zM79.92 21v-.6c-.09-.12-.15-.18-.2-.18s-.1.08-.16.23-.16.25-.26.26l.26.22a.35.35 0 0 0 .24.12.27.27 0 0 0 .12-.05zm.31 1.25l-.62-.62a.29.29 0 0 0-.12.21.5.5 0 0 0 .14.27.56.56 0 0 1 .14.3zm.47-.25h-.15v.16zm4.98 1.19c-.11.17-.22.34-.32.51a.59.59 0 0 1-.49.3h-.7a.83.83 0 0 1-.55-.41.77.77 0 0 1-.09-.36 2 2 0 0 1 .53-1 1.1 1.1 0 0 1 .4-.08 1.39 1.39 0 0 1 1 .53c.06 0 .08.13.08.3s.03.2.14.21zm9.07-1.72A3.4 3.4 0 0 1 92.21 24q-1.83-.43-2.1-.54a2.54 2.54 0 0 1-1.54-1.36v-.17a.72.72 0 0 0-.33-.63c.13-.12.18-.23.15-.31a.92.92 0 0 1-.15-.55 2.64 2.64 0 0 1 .17-.86l.31-.82a2.91 2.91 0 0 0 .42-.58 2.27 2.27 0 0 1 .37-.52 1.26 1.26 0 0 1 .64-.32 1.73 1.73 0 0 1 1.34-.53 3.71 3.71 0 0 1 1.51.37l.87.62a1.25 1.25 0 0 1 .56.81v.63a.5.5 0 0 1-.32.49 1.17 1.17 0 0 0-.34.15 1 1 0 0 1-.45.16.44.44 0 0 1-.33-.16 7 7 0 0 0-.31-1.14.92.92 0 0 0-.85-.63h-.27q-.1.26-.69.39a.47.47 0 0 0-.42.57.8.8 0 0 0-.53.45l-.26.66a1.24 1.24 0 0 1 .16.69c0 .32.14.48.34.48a.88.88 0 0 0 .29-.06c-.08 0-.19 0-.31.16q.06.68 1.11 1.26h.49a.6.6 0 0 0 .45-.15c0 .1.1.15.17.15a.52.52 0 0 0 .21-.09.48.48 0 0 1 .26-.06.74.74 0 0 1 .3-.46c.2-.18.31-.32.31-.41a.35.35 0 0 0-.12-.24c.11 0 .27-.1.49-.19a1 1 0 0 1 .39-.14.77.77 0 0 1 .55.35zm-2.7-2.53h-.16v-.33h.16zm10.72 3l-.64.31.16.17a3.87 3.87 0 0 1-.79.9 2.57 2.57 0 0 1-1.14.54h-2a3.59 3.59 0 0 1-1.71-.34 10.75 10.75 0 0 1-1.15-1.59 3.45 3.45 0 0 1-.5-1.69 2.79 2.79 0 0 1 .2-1 3.91 3.91 0 0 1 2.09-2.4 3.32 3.32 0 0 1 .83-.11 4.55 4.55 0 0 1 2 .54l1.85 1a1.6 1.6 0 0 0 .44.73 1.34 1.34 0 0 1 .41.78 1.06 1.06 0 0 1-.21.58c-.22 0-.37-.14-.45-.41s-.09-.5-.14-.76-.17-.38-.34-.38a.78.78 0 0 0-.35.1l.18.43a.75.75 0 0 0 .3.37.44.44 0 0 0-.17.32 1.87 1.87 0 0 1 0 .34 3.07 3.07 0 0 1-.51 1.75l-.63.81.18.2a.28.28 0 0 0 .21.13h.11a1.25 1.25 0 0 1 .5-.59 1.76 1.76 0 0 0 .62-.54 1.46 1.46 0 0 1 0-.53 1.67 1.67 0 0 1 .28-.6 2.27 2.27 0 0 0 .21.2.29.29 0 0 1 .12.21.31.31 0 0 1 0 .09l-.16.15c.17.09.22.2.2.29zm-2.41-1.79l-.64-.48.33-.32a.79.79 0 0 0-.44-.72 5.88 5.88 0 0 0-.86-.39.49.49 0 0 1 0 .18c0 .12-.11.21-.34.27s-.33.11-.34.18l.15.17-.18.21a.28.28 0 0 1-.22.13h-.08a.83.83 0 0 1-.08.49l-.24.46-.64-.65a2 2 0 0 0 .47-.82.86.86 0 0 1 .65-.62s-.29.15-.74.36a1.54 1.54 0 0 0-.7.6.42.42 0 0 0-.05.22 1 1 0 0 0 .12.41.94.94 0 0 1 .13.41.69.69 0 0 1 0 .24l.48-.15a.45.45 0 0 1 .35.5v.27a1.84 1.84 0 0 0 0 .24.15.15 0 0 0 0 .1 1.23 1.23 0 0 0 .34.5l.46.45h.25a1.12 1.12 0 0 0 1-.43 3.26 3.26 0 0 0 .43-.9 3 3 0 0 1 .39-.91zm-3.53 1l-.17-.15h-.15zm15.46 2.19a3.9 3.9 0 0 1-2 .82 1.83 1.83 0 0 1-.76-.17 1 1 0 0 1-.32-.79 1.23 1.23 0 0 1 .16-.65q.18-.14.18-.24t-.27-.33c-.17-.15-.25-.28-.23-.39s0 0-.34 0a.28.28 0 0 0-.29.16l.31.65a.71.71 0 0 0-.61-.36.34.34 0 0 0-.18 0l-.17.15a.49.49 0 0 1 .32.63q-.1.52 0 .66a1 1 0 0 1-1 .49h-.26a1.27 1.27 0 0 1-.34-.89v-.37a2.71 2.71 0 0 0 0-.36 2.66 2.66 0 0 0 0-.3h-.16v-.48a.46.46 0 0 0 .34-.16 1.8 1.8 0 0 0-.15-.42 1 1 0 0 1-.1-.38q0-.28.39-.48l-.48-.48c.23 0 .34-.15.34-.43v-.52a.63.63 0 0 0-.22 0c-.32 0-.58.23-.77.69a.75.75 0 0 1 .28.6 1 1 0 0 1-.21.6 1.16 1.16 0 0 1-.55.39c-.08 0-.18 0-.31.16a1.31 1.31 0 0 0 .53.63 1 1 0 0 1 .43.65 1.1 1.1 0 0 1-.34-.19.76.76 0 0 0-.35-.17.34.34 0 0 0-.27.17l.48 1.46c0 .23-.23.34-.54.34h-.38a.7.7 0 0 0-.52.16l-.54-.34a.58.58 0 0 1-.31-.48 1.17 1.17 0 0 1 .05-.3q.69 0 .69-.54a3.06 3.06 0 0 0 0-.42 2.26 2.26 0 0 1 0-.46 1 1 0 0 1 0-.35 5.2 5.2 0 0 0 .18-1.42 5.59 5.59 0 0 0-.18-1.45l-.81-.33a.38.38 0 0 1 .09-.25.55.55 0 0 0 .1-.25.28.28 0 0 0 0-.13 1.13 1.13 0 0 1 .83-.33 4.14 4.14 0 0 1 .62.08 4.14 4.14 0 0 0 .62.08 1.17 1.17 0 0 0 .81-.31 2 2 0 0 0 1.19.34 7.92 7.92 0 0 0 1.06-.1 6.61 6.61 0 0 1 1-.11 1.77 1.77 0 0 1 1.65 1h.2c.15 0 .24.11.26.33a.9.9 0 0 0 .18.51.4.4 0 0 1-.07.24.63.63 0 0 0-.07.22c0 .08 0 .13.14.17-.11 0-.17.21-.17.48 0-.1-.19-.15-.47-.15l-.32.31a1.33 1.33 0 0 0 .61.39.54.54 0 0 1 .35.57.43.43 0 0 0-.14.49c0 .17.09.34.14.5s-.08.34-.32.45a.66.66 0 0 0 .39.48c.38.1.56.21.6.23zm-6.87-2.89V20a.24.24 0 0 0-.27.11.58.58 0 0 0-.05.35zm2.87-1.26V19c-.08 0-.18 0-.31.16zm0 2.07V21h-.13v.31zm1.12-2.38c-.35.11-.52.28-.52.52a1.94 1.94 0 0 0 .08.42 1.67 1.67 0 0 1 .09.45.66.66 0 0 1-.29.53c.13.12.24.17.32.15a1 1 0 0 1 .16-.39 1 1 0 0 0 .16-.4c0-.14-.11-.24-.32-.32 0 0 .09-.17.22-.39a.72.72 0 0 0 .13-.39.57.57 0 0 0-.03-.18zm1.6 2.38v-.15h-.16zm0 1.13v-.32l-.16-.16z"/>
</svg>
