<svg xmlns="http://www.w3.org/2000/svg" viewBox="0 0 101.7 12.8">
  <path d="M7.3 8.6c-.3.5-.9.7-1.6.7H4.5l-4 .3c-.3-.1-.5-.3-.5-.5s0-.4.1-.6c.1-.2.4-.4.9-.5s.7-.4.7-.6c0-.1 0-.2-.1-.3.2-.1.3-.2.3-.4 0-.1-.1-.3-.1-.4 0-.3-.1-.4-.1-.6 0-.2.1-.4.3-.5V2.3c0-.2-.1-.4-.2-.6l-.3-.5h-.2c-.2 0-.4-.1-.6-.1C.5 1 .3.9.1.9V.7C.1.3.4 0 .7 0l4.1.3c-.1.3-.4.6-1 .9s-.8.5-.8.9c0 .2.1.4.2.6-.1 0-.2.1-.2.3v.3c.2.2.2.5.2.7-.1.5-.2.8-.2.9 0 .2 0 .4.2.6.2.1.3.2.3.3 0 .1 0 .2-.1.2s-.2.1-.2.2l-.2.2c.1.1.2.1.3.2.1.1.2.2.2.3 0 .1 0 .1-.1.2-.1-.1-.1-.1-.2 0l-.2.2c.2.1.4.2.6.4.2.2.4.3.6.4h.2l1-.1c.3 0 .6-.3.7-.6-.2 0-.3-.2-.3-.3 0-.1.1-.3.1-.4.1-.2.2-.3.2-.5s-.1-.3-.3-.4l.4-.4c.1-.2.3-.3.5-.3.1 0 .2 0 .3.1.1.2.1.4.2.6V7c-.1.1-.2.3-.2.4 0 .2.1.4.1.6.1.2.2.4.2.6zm8.1-1c.1.1.1.3.1.5 0 .6-.5 1.1-1.4 1.5-.2-.1-.4-.1-.6-.2-.2 0-.4-.1-.6-.1-.2-.1-.3-.3-.3-.5-.7.5-1.5.9-2.4.9-.6-.2-1.2-.3-1.8-.5-.2-.3-.3-.6-.5-.8-.1-.3-.2-.6-.2-.9v-.4c.1-.6.6-1.1 1.3-1.2l2-.2c.7-.1 1.3-.4 1.6-1 0-.1.1-.2.1-.3 0-.3-.3-.5-.9-.7-.1 0-.2 0-.3.2-.1-.1-.2-.2-.3-.2h-.3l-.2.1c-.1-.1-.2-.1-.4-.2-.2 0-.4.2-.5.6s-.3.7-.5.8h-.8c-.2 0-.5-.3-.5-.5.1 0 .2-.1.2-.2s0-.2-.1-.2c0-.1-.1-.2-.1-.3l.8-.8c.3-.3.6-.5 1-.6.5.1 1 .2 1.5.2s1 .1 1.4.3c.5.2.8.5 1 1v1.8c0 .6 0 1.1.2 1.7 0 .1-.1.2-.2.4-.1.1-.1.2-.2.4 0 .1.1.2.2.3.3.1.6-.1.8-.3v-.6c0-.1.1-.2.2-.3h.1c.1 0 .2 0 .3.1l.3.2zm-3-1.4l-.5.2c-.2.1-.4.2-.5.4-.1-.1-.3-.2-.4-.2-.2 0-.3.1-.5.1-.1.2-.3.2-.5.3-.1 0-.1 0-.2-.1 0 .2-.1.3-.3.4l-.5.3c.4.4.9.6 1.4.5.5 0 .9-.1 1.4-.2.5-.4.8-1 .6-1.7zm12.1-3.1c-.2.2-.4.4-.7.6-.4.2-.5.4-.5.6 0 .1 0 .2.1.4-.3.3-.5.7-.5 1.1v.6c0 .3 0 .6-.2.8 0 0 .1.1 0 .2 0 .1-.1.2-.1.4-.1.1-.1.3-.1.4 0 .1.1.3.2.4-.1 0-.3 0-.3.2v.3c0 .2 0 .2-.1.3l-1.4-.1c0-.3.1-.4.1-.5 0-.2-.1-.4-.3-.6-.2-.2-.3-.5-.2-.7-.1.1-.3.1-.4.2-.2.1-.3.2-.3.3v.2c.2.1.4.3.6.3-.2-.1-.5 0-.7.2l-.4.5c-.1.2-.3.3-.5.3-.1 0-.3 0-.4-.1-.2-1-.5-1.9-.7-2.9-.2-1-.5-1.9-.9-2.8h-.2c-.2 0-.3-.1-.4-.2L16 3v-.1c0-.2.1-.3.2-.4.1-.1.3-.2.4-.2h1.6c.6.1 1 .4 1 .9v.2h-.1c-.4 0-.6.2-.6.8 0 .2.1.5.2.7 0 .1 0 .2.2.3l-.2.2c.1.1.2.2.3.2h.4c.2-.2.3-.4.3-.6 0-.2.2-.4.5-.5.1-.1.3-.1.4-.1.1 0 .3.1.4.4s.1.2.3.2c.1 0 .2 0 .3-.1-.1.1-.1.2-.2.2-.1.1-.1.2-.1.3v.1c0 .1.2.2.5.2.1-.1.2-.2.2-.4 0-.1 0-.3-.1-.4 0-.1-.1-.3-.1-.4 0-.2.2-.4.5-.5-.3 0-.5-.2-.6-.5-.1-.3-.3-.5-.5-.5H21c.2-.2.5-.4.8-.4l1-.2h.4c.5-.1 1 .2 1.3.7zm-5.2 1.4h-.2v-.3h.2v.3zm16-1.1c0 .1 0 .2-.2.3-.1-.1-.3-.2-.4-.2-.2 0-.4.1-.6.2-.1.3-.3.5-.4.7-.1.4-.2.7-.3 1-.1.4-.3.7-.6 1 .1.1.2.2.2.3-.1-.3-.2-.6-.2-.9 0-.5.2-.8.5-.9.1-.1.2-.2.2-.3v-.2c-.1-.1-.3-.2-.4-.2h-1c-.4.3-.6.7-.7 1.1v.3c-.3.2-.5.5-.6.9-.1.3-.1.6-.2.9-.1.4-.3.7-.7.9-.1.5-.3 1.1-.4 1.6-.3.8-.4 1.3-.5 1.6l.3.3c-.4 0-.8.1-1.1.4-.3.2-.6.4-1 .4H27l-1-.6c-.4-.2-.6-.5-.7-.9v-.3c-.1-.5.3-1.1.8-1.2l.6.1c.2 0 .4.2.5.4v.2c0 .2-.1.3-.1.5l-.2.4c.1.1.2.2.3.2h.3l.2-.2c.1-.1.1-.1.1-.2v-.1l-.2-.2c.5-.2.8-.7.9-1.2-.5-1.3-.8-2.2-.9-2.6-.3-.9-.7-1.7-1.1-2.5h-.2c-.4 0-.9-.2-1.2-.5v-.8h3.6l.3.8c.4-.6 1-.9 1.7-.9.5.1.9.1 1.4.1.5 0 .9.1 1.3.4.1 0 .2.1.3.1.2 0 .3 0 .5-.1.1-.1.3-.1.5-.1s.4.1.6.3v-.3zM30 5.2c0-.1-.1-.2-.2-.3-.1-.1-.1-.2-.2-.4 0-.1.1-.2.2-.2-.1.1-.3.1-.4.1-.3 0-.6-.1-.8-.3-.1.1-.2.3-.2.4 0 .2.1.5.2.7.1.2.2.5.2.8v.3c.1.1.2.2.2.4s.1.3.2.3h.2c.1 0 .2-.2.2-.5h-.5c-.1-.1-.2-.2-.2-.3.1-.2.2-.3.3-.2h.3v-.2c0-.1.1-.3.2-.3l.3-.3zm.9 6.2c0 .1 0 .2-.2.3h-.3v-.3h.5zm.8-1.2l-.5.2c0-.2.1-.5.2-.7.1-.2.1-.5.2-.7 0-.2-.1-.5-.3-.6v-.7h.3c0 .1 0 .2-.2.3.2.2.4.6.3.9v1.3zm-.3.8h-.2v-.3h.2v.3zm1.1-2.7c-.1.1-.2.2-.3.2l-.2-.2c0-.1.1-.2.2-.2.2 0 .3.1.3.2zm.2-1.1c0 .1 0 .2-.2.3l-.2-.3h.4zm9.5.2v.3c0 .3-.2.6-.4.8-.3.2-.5.4-.7.7-.4.3-.9.4-1.4.4-.5 0-.9-.1-1.4-.3l-1.4-.5c-.6-.6-.9-1.5-.9-2.3 0-.9.2-1.8.5-2.6l1-.9c.3-.3.7-.5 1.2-.5h.6c1.2.1 2.3.9 2.9 2 .1.3.2.7.2 1 0 .3-.1.7-.4.9-.4.1-.8.2-1.2.2h-1.2c-.2.1-.4.2-.7.2h-.4c-.1 0-.3-.1-.4-.1-.4 0-.8.3-.8.7l.3.2c.1.1.2.1.3.1h.1c-.1.1-.2.2-.2.3l.2.2c.1.1.2.1.3.1h.1c.1 0 .1-.1.2 0 .1 0 .3 0 .4.1.1.1.3.1.4.1.2 0 .4-.1.5-.3.1 0 .2.1.3 0 .3 0 .6-.2.8-.5.3-.3.5-.5.7-.5.2 0 .4.1.5.2zm-1.3-2.3v-.2c0-.2-.1-.3-.2-.4l-.3-.3c-.4-.2-.8-.3-1.2-.3-.3 0-.7.1-1 .2v.5c0 .1-.2.2-.5.2v.5c0-.1.1-.1.2-.1s.2 0 .3.1c.1.1.2.1.2.1.1 0 .1 0 .2-.1.1 0 .2 0 .3.2.3-.2.7-.2 1-.1.3-.2.7-.2 1-.3zM50.1 4c-.1.1-.1.3-.1.6 0 .2-.1.4-.2.6-.1.2-.3.3-.6.3h-.1c-.3 0-.5-.2-.6-.5-.1-.2-.2-.4-.4-.6l.3-.1c.1 0 .2-.1.3-.2-.1-.1-.3-.2-.4-.2-.3 0-.5.1-.7.3l-.7.5c-.5.3-.8.8-.7 1.3v.7c0 .3 0 .6-.1.9 0 .5.3.8.9.8h1c.2 0 .5 0 .7.1l-.3.6c-.4 0-1 .1-1.8.2-.6.1-1.2.1-1.8.1-.5 0-1-.1-1.4-.2-.1 0-.2-.1-.2-.4v-.5c.1.1.3.2.4.2.2 0 .4-.1.5-.2.2-.1.4-.2.6-.2.1 0 .2 0 .3.1.1-.1.1-.2.1-.3v-.7c-.1-.1-.2-.2-.3-.2.2-.2.3-.4.2-.6 0-.2-.1-.4-.2-.6.2-.1.3-.2.3-.4s-.1-.4-.2-.5c-.1-.2-.1-.3-.2-.5h-.3c-.1-.2-.2-.3-.4-.3s-.3.1-.5.1c-.2.1-.3.1-.5.1h-.3V3.2c.3-.1.6-.1.9-.1h1.9v.1c0 .1.1.2.2.3l.3.3c.1-.1.3-.2.5-.1.2 0 .3-.1.3-.2v-.2c.4-.1.8-.2 1.2-.2.9-.1 1.6.3 2.1.9zm7.3 5c-.9.3-1.8.5-2.8.5h-3.3l-.4-.2c-.1-.1-.2-.2-.2-.4v-.2c0-.3.2-.5.5-.6.2.1.4.2.6.2.3 0 .6-.1.8-.1.3-.1.6-.2.8-.2V6c0-.6-.1-1.3-.3-1.9-.3.1-.5.1-.8.1-.5 0-.9-.2-1.2-.6 0-.3.1-.4.2-.5.2-.1.4-.1.6-.1.2 0 .4-.1.5-.1.6 0 1.1.1 1.6.3.5.2 1.1.4 1.6.4-.1.1-.2.2-.3.2H55c-.2 0-.4.1-.4.3v3.7c.2.3.5.4.8.4.2 0 .4 0 .6-.1.2 0 .4-.1.6-.1h.4l.4 1zM54.9.7v.8c0 .2-.1.3-.1.5-.4.2-.9.3-1.3.3-.5-.3-.7-.7-.7-1.1 0-.3.2-.6.4-.8h.3c.5 0 1 .1 1.4.3zm1.9.4c0 .1-.1.2-.2.3-.2 0-.4 0-.4-.1l.3-.3c.1.1.2.1.3.1zm.2 5.8c-.2 0-.2.1-.3.1l-.2.2.3.3c-.1.1-.2.1-.3.1 0-.2 0-.4-.1-.5-.1-.2-.1-.4-.1-.6v-.2h.4v.3c.1.2.2.3.3.3zm-.2-1.3c-.2 0-.4 0-.4-.1v-.2c0-.1.1-.1.2-.1s.2.1.2.2v.2zm.2-1.4c0 .1-.1.2-.1.3l-.2.2c-.2-.1-.3-.3-.3-.5 0-.1.1-.2.1-.2h.1c.1 0 .1 0 .2.1l.2.1zm7.3 3.2c-.2.3-.3.6-.4 1-.1.4-.4.7-.7.8h-.5c-.2 0-.3.1-.4.3l-2-.2c0-.2-.1-.4-.3-.4h-.1c-.2 0-.3 0-.3-.1-.1.2-.3.4-.3.6-.1 0-.2.1-.3.1-.2 0-.3-.1-.4-.4 0-.3-.2-.5-.4-.6.2-.1.3-.4.3-.6v-.2c-.2-.1-.4-.3-.3-.5 0-.2.1-.4.2-.6.1-.1.3-.2.5-.2s.3.1.5.2c.1.3.2.6.5.8.2.2.5.3.8.5.3.1.5.3.7.5.5.2 1 0 1.4-.3.5-.4.8-.6.8-.6-.4-.5-1-.9-1.7-1l-2-.3c-.6-.1-1.2-.5-1.6-1 .1-.2.2-.4.2-.7 0-.3-.1-.5-.2-.8.6-.8 1.5-1.3 2.5-1.3.5 0 .9.1 1.4.3l.6-.1c.2 0 .4-.1.6-.1.2 0 .5 0 .7.2-.2.5-.1 1.2-.1 1.9V5c-.2.3-.5.4-.8.3-.2-.3-.3-.6-.6-.8l-.8-.8c-.2 0-.3 0-.5-.1-.1-.1-.3-.1-.4-.1h-.2l-.3.3-.3-.4c-.2.1-.4.2-.5.4l-.3.6c.4.4 1 .7 1.6.8l1.8.2c.1.2.3.3.4.3h.5l.2.9c.1.3.3.6.5.8zm-2.1.2l-.3-.1h.2l.1.1zm9.8-.7c-.1.1-.2.3-.4.4-.1.1-.2.3-.3.4v.1l.2.2c.1-.1.2-.2.3-.2s0 .1 0 .2c0 .2-.2.5-.7.7s-.8.5-.9.7c-.2.2-.4.2-.6.1l-.6-.1c-.2 0-.3 0-.4.1-.3-.2-.6-.4-.8-.7-.3-.2-.4-.6-.4-.9v-.3c0-.3-.1-.5-.3-.6.4-.7.4-1.5.2-2.2.1 0 .2-.2.2-.5-.5-.3-.9-.5-1.2-.4h-.9c-.4 0-.5-.1-.5-.4 0-.2.1-.4.1-.6.2-.2.6-.4.9-.3h.4c.3 0 .6-.1.9-.3-.1-.3-.1-.7 0-1 .1-.4 0-.7-.3-1 .2-.2.5-.4.8-.4.3 0 .6.1.8.4-.1.2-.2.5-.1.7l.2.7c0 .2-.1.3-.2.5.3.4.7.5 1.1.5h.8c.3 0 .5 0 .7.2.2.2.3.5.3.8-.3.2-.6.4-1 .3h-.8c-.5 0-.8.2-.8.5v.3c-.1.1-.1.2-.2.3 0 .1.1.2.2.3.1.1.1.2.2.3h.2c.2 0 .4.2.6.6s.3.6.4.6.3-.2.5-.5c.1 0 .2-.1.3-.1.2 0 .4.1.6.3 0 .1.2.2.5.3zm-2.9-.3V6c-.1-.2-.1-.2-.2-.2s-.1.1-.1.2-.2.2-.3.3l.3.2c.1.1.1.1.2.1h.1zm.3 1.2l-.6-.6c-.1 0-.1.1-.1.2s.1.2.1.3c.1 0 .2.1.2.3l.4-.2zm.5-.2h-.2v.2l.2-.2zm5 1.1c-.1.2-.2.3-.3.5-.1.2-.3.3-.5.3h-.7c-.2-.1-.4-.2-.6-.4-.1-.1-.1-.2-.1-.4.1-.4.3-.7.5-1 .1-.1.3-.1.4-.1.4 0 .8.2 1 .5.1 0 .1.1.1.3s.1.3.2.3zM84 7c-.3 1.3-1.3 2.2-2.5 2.5-1.2-.3-1.9-.5-2.1-.5-.7-.2-1.2-.7-1.5-1.4v-.1c0-.3-.1-.5-.3-.6.1-.1.2-.2.2-.3-.1-.2-.2-.4-.2-.5 0-.3.1-.6.2-.9l.3-.8c.2-.2.3-.4.4-.6.1-.2.2-.4.4-.5.2-.2.4-.3.6-.3.3-.4.8-.6 1.3-.5.5 0 1 .1 1.5.4l.9.6c.3.2.5.5.6.8v.6c0 .2-.1.4-.3.5-.1 0-.2.1-.3.1-.1.1-.3.1-.4.2-.1 0-.2-.1-.3-.2-.4-.5-.5-.8-.6-1.2-.1-.4-.5-.6-.8-.6h-.3c-.1.2-.3.3-.7.4-.3 0-.5.2-.4.5v.1c-.2.1-.4.2-.5.5l-.3.7c.1 0 .2.3.1.5 0 .3.1.5.3.5.1 0 .2 0 .3-.1-.1 0-.2 0-.3.2 0 .5.4.9 1.1 1.3h.6c.2 0 .3 0 .4-.1 0 .1.1.1.2.1s.1 0 .2-.1c.1 0 .2-.1.3-.1 0-.2.1-.4.3-.5.2-.2.3-.3.3-.4 0-.1 0-.2-.1-.2.1 0 .3-.1.5-.2.1-.1.3-.1.4-.1.1 0 .3.1.5.3zm-2.7-2.5h-.2v-.3h.2v.3zm10.7 3l-.6.3.1.2c-.2.3-.5.6-.8.9-.3.3-.7.5-1.1.5h-2c-.6 0-1.2-.1-1.7-.3-.4-.5-.8-1-1.2-1.6-.3-.5-.5-1.1-.5-1.7 0-.3.1-.7.2-1 .3-1.1 1.1-1.9 2.1-2.4.3-.1.5-.1.8-.1.7 0 1.4.2 2 .5l1.8 1c.1.3.2.5.4.7.3.3.5.5.5.8 0 .2-.1.4-.2.6-.2 0-.4-.1-.4-.4s-.1-.5-.2-.8-.2-.4-.3-.4c-.1 0-.2 0-.3.1l.2.4c0 .2.1.4.2.5-.1.1-.2.2-.2.3v.3c0 .6-.2 1.2-.5 1.8l-.6.8.2.2c0 .1.1.1.2.1h.1c.1-.2.3-.5.5-.6.2-.1.5-.3.6-.5v-.5c.1-.2.1-.4.3-.6l.2.2c.1 0 .1.1.1.2v.1l-.2.1c.3.1.3.2.3.3zm-2.4-1.8l-.6-.5.3-.3c0-.3-.2-.6-.4-.7-.3-.2-.6-.3-.9-.4V4c0 .1-.1.2-.3.3s-.3.1-.3.2l.2.2-.2.2c0 .1-.1.1-.2.1H87c0 .2 0 .3-.1.5l-.2.5-.7-.8c.2-.2.4-.5.5-.8.1-.3.3-.6.7-.6 0 0-.3.1-.7.4-.3.1-.5.3-.7.6 0 .1-.1.1-.1.2s.1.3.1.4c.1.1.1.3.1.4V6l.5-.1c.2 0 .4.3.3.5V7c.1.2.2.4.3.5l.5.5h.2c.4 0 .8-.1 1-.4.2-.3.3-.6.4-.9.2-.4.3-.7.5-1zm-3.6 1l-.2-.1h-.2l.4.1zm15.5 2.2c-.6.5-1.3.7-2 .8-.3 0-.5-.1-.8-.2-.2-.2-.3-.5-.3-.8 0-.2 0-.5.2-.6l.2-.2c0-.1-.1-.2-.3-.3-.2-.1-.2-.3-.2-.4s0 0-.3 0c-.1 0-.2 0-.3.2l.2.6c-.1-.2-.4-.4-.6-.4h-.2l-.1.1c.3.1.4.4.3.6-.1.3-.1.6 0 .7-.2.4-.6.5-1 .5H96c-.2-.2-.3-.6-.3-.9v-1h-.2v-.5c.1 0 .3-.1.3-.2s-.1-.3-.2-.4c-.1-.1-.1-.2-.1-.4s.1-.3.4-.5l-.5-.5c.2 0 .3-.1.3-.4v-.4h-.2c-.3 0-.6.2-.8.7.2.1.3.4.3.6 0 .2-.1.4-.2.6-.1.2-.3.3-.6.4-.1 0-.2 0-.3.2.1.3.3.5.5.6.5.1.6.3.7.6-.1 0-.2-.1-.3-.2-.1-.1-.2-.1-.3-.2-.1 0-.2.1-.3.2l.5 1.5c0 .2-.2.3-.5.3h-.4c-.2 0-.4 0-.5.2l-.5-.3c-.2-.1-.3-.3-.3-.5 0-.1 0-.2.1-.3.5 0 .7-.2.7-.5V6.9c.1-.5.2-.9.2-1.4 0-.5-.1-1-.2-1.5l-.8-.3c0-.1 0-.2.1-.2.1-.1.1-.2.1-.2v-.1c.2-.2.5-.3.8-.3.2 0 .4 0 .6.1s.4.1.6.1c.3 0 .6-.1.8-.3.4.2.8.4 1.2.3.4 0 .7 0 1.1-.1.3-.1.7-.1 1-.1.7 0 1.3.4 1.7 1h.2c.2 0 .2.1.3.3 0 .2.1.4.2.5 0 .1 0 .2-.1.2 0 .1-.1.1-.1.2s0 .1.1.2c-.1 0-.2.2-.2.5 0-.1-.2-.1-.5-.1l-.3.3c.2.2.4.3.6.4.2.1.4.3.3.6-.1.1-.2.3-.1.5 0 .2.1.3.1.5s-.1.3-.3.5c0 .2.2.4.4.5.2-.2.4-.1.4-.1zM94.6 6v-.4c-.1 0-.2 0-.3.1-.1.1-.1.2-.1.4l.4-.1zm2.9-1.3v-.1c-.1 0-.2 0-.3.2l.3-.1zm0 2.1v-.2h-.1v.3l.1-.1zm1.1-2.4c-.3.1-.5.3-.5.5 0 .1 0 .3.1.4.1.1.1.3.1.5s-.1.4-.3.5c.1.1.2.2.3.1 0-.1.1-.3.2-.4.1-.1.1-.3.2-.4 0-.1-.1-.2-.3-.3l.2-.4c.1-.1.1-.3.1-.4 0 0-.1 0-.1-.1zm1.6 2.4v-.1h-.2l.2.1zm0 1.1v-.3l-.2-.2.2.5z"/>
</svg>
