<svg xmlns="http://www.w3.org/2000/svg" id="Layer_1" viewBox="0 0 124.6 153.8">
  <style>
    .st0{fill:#fff}
  </style>
  <g id="XMLID_151_">
    <path id="XMLID_105_" d="M16.6 122.8h2.9v20.3h9.7v2.5H16.6v-22.8zm34 11.1c0 7.8-4.8 12-10.5 12-6 0-10.2-4.7-10.2-11.5 0-7.2 4.5-11.9 10.5-11.9 6.2-.1 10.2 4.7 10.2 11.4zm-17.7.4c0 4.9 2.6 9.2 7.2 9.2 4.7 0 7.3-4.3 7.3-9.4 0-4.5-2.4-9.2-7.2-9.2-4.8-.1-7.3 4.4-7.3 9.4zm21.5-11.2c1.5-.3 3.6-.5 5.6-.5 3.1 0 5.2.6 6.6 1.9 1.1 1 1.8 2.6 1.8 4.3 0 3-1.9 5-4.3 5.8v.1c1.8.6 2.8 2.2 3.3 4.6.7 3.2 1.3 5.4 1.8 6.2h-3c-.4-.6-.9-2.6-1.5-5.4-.7-3.1-1.9-4.3-4.6-4.4h-2.8v9.8h-2.9v-22.4zm2.9 10.4h3c3.1 0 5.1-1.7 5.1-4.3 0-2.9-2.1-4.2-5.2-4.2-1.4 0-2.4.1-2.9.3v8.2zm27 1.4h-8.8v8.2h9.8v2.5H72.5v-22.7h12.3v2.5h-9.3v7.2h8.8v2.3zm23.9.7c-.2-3.2-.4-7-.3-9.8h-.1c-.8 2.7-1.7 5.5-2.9 8.6l-4 11h-2.2L95 134.6c-1.1-3.2-2-6.1-2.6-8.8h-.1c-.1 2.8-.2 6.6-.4 10l-.6 9.7h-2.8l1.6-22.7h3.7l3.9 11c.9 2.8 1.7 5.3 2.3 7.7h.1c.6-2.3 1.4-4.8 2.4-7.7l4-11h3.7l1.4 22.7h-2.9l-.5-9.9z" class="st0"/>
    <g id="XMLID_72_">
      <g id="XMLID_96_">
        <g id="XMLID_120_">
          <path id="XMLID_121_" d="M26.5 36.4l-11.2-6.6c-3.3-1.8-7.4.5-7.4 4.3v26c0 3.8 4.1 6.1 7.3 4.2l8.8-5.1c1.5-.9 2.4-2.5 2.4-4.2V36.4h.1z" class="st0"/>
          <path id="XMLID_202_" d="M15.2 25.9L24 31c1.5.9 3.4.9 4.9 0l13.6-7.9c1.5-.9 2.4-2.5 2.4-4.2V8.7c0-3.8-4.1-6.1-7.3-4.2L15.2 17.4c-3.2 1.9-3.2 6.6 0 8.5z" class="st0"/>
          <path id="XMLID_203_" d="M112 17.4L89.4 4.5c-3.3-1.9-7.3.5-7.3 4.2v10.2c0 1.7.9 3.4 2.4 4.2l16.1 9.3 11.3-6.5c3.4-1.9 3.4-6.6.1-8.5z" class="st0"/>
          <path id="XMLID_208_" d="M58.9 96.7l-16.1-9.3c-1.5-.9-3.4-.9-4.9 0l-8.8 5.1c-3.3 1.9-3.3 6.6 0 8.5l22.5 13c3.3 1.9 7.3-.5 7.3-4.2V96.7z" class="st0"/>
          <path id="XMLID_209_" d="M97.7 100.9c3.2-1.9 3.2-6.6 0-8.4L86.5 86l-16 9.3c-1.5.9-2.4 2.5-2.4 4.2v10.2c0 3.8 4.1 6.1 7.3 4.2l22.3-13z" class="st0"/>
          <path id="XMLID_210_" d="M100.7 39.2V55c0 1.7.9 3.4 2.4 4.2l8.8 5.1c3.2 1.9 7.3-.5 7.3-4.2l.1-26c0-3.8-4.1-6.1-7.3-4.2l-8.9 5.1c-1.5.9-2.4 2.5-2.4 4.2z" class="st0"/>
          <path id="XMLID_216_" d="M82.1 64.6l.1-.1" class="st0"/>
        </g>
        <path id="XMLID_213_" d="M72.9 86.8l6-3.4c1.5-.9 2.4-2.5 2.4-4.2V66.6c0-1.7-.9-3.4-2.4-4.2l-6-3.4c-3.3-1.9-7.3.5-7.3 4.2v19.4c0 3.7 4.1 6.1 7.3 4.2z" class="st0"/>
        <path id="XMLID_215_" d="M48.2 62.3c-1.5.9-2.4 2.5-2.4 4.2V82l8.4 4.9c3.3 1.9 7.3-.5 7.3-4.2V63.1c0-3.8-4.1-6.1-7.3-4.2l-6 3.4z" class="st0"/>
        <path id="XMLID_223_" d="M61.6 32l-10.9-6.3c-1.5-.9-3.4-.9-4.9 0l-6 3.4c-3.3 1.9-3.3 6.6 0 8.5l16.8 9.7c3.3 1.9 7.3-.5 7.3-4.2v-6.9c.1-1.7-.8-3.3-2.3-4.2z" class="st0"/>
        <path id="XMLID_224_" d="M31.4 55.1l10.9 6.3c1.5.9 3.4.9 4.9 0l6-3.5c3.3-1.9 3.3-6.6 0-8.5l-16.9-9.8c-3.3-1.9-7.3.5-7.3 4.2v6.9c0 1.9.9 3.5 2.4 4.4z" class="st0"/>
        <path id="XMLID_225_" d="M66.5 52.6v.1l15.7 9.1.1-.1 15.7-9V34.4z" class="st0"/>
        <path id="XMLID_227_" d="M73.3 47.4l16.8-9.7c3.3-1.9 3.3-6.6 0-8.5l-6-3.5c-1.5-.9-3.4-.9-4.9 0L68.4 32c-1.5.9-2.4 2.5-2.4 4.2v6.9c0 3.8 4.1 6.2 7.3 4.3z" class="st0"/>
      </g>
    </g>
  </g>
</svg>
