<?xml version="1.0" encoding="utf-8"?>
<!-- Generator: Adobe Illustrator 22.0.1, SVG Export Plug-In . SVG Version: 6.00 Build 0)  -->
<svg version="1.1" id="Layer_1" xmlns="http://www.w3.org/2000/svg" xmlns:xlink="http://www.w3.org/1999/xlink" x="0px" y="0px"
	 viewBox="0 0 124.6 153.8" style="enable-background:new 0 0 124.6 153.8;" xml:space="preserve">
<style type="text/css">
	.st0{fill:#FFFFFF;}
</style>
<g id="XMLID_151_">
	<g id="XMLID_105_">
		<g>
			<path class="st0" d="M16.6,122.8h2.9v20.3h9.7v2.5H16.6V122.8z"/>
			<path class="st0" d="M50.6,133.9c0,7.8-4.8,12-10.5,12c-6,0-10.2-4.7-10.2-11.5c0-7.2,4.5-11.9,10.5-11.9
				C46.6,122.4,50.6,127.2,50.6,133.9z M32.9,134.3c0,4.9,2.6,9.2,7.2,9.2c4.7,0,7.3-4.3,7.3-9.4c0-4.5-2.4-9.2-7.2-9.2
				C35.4,124.8,32.9,129.3,32.9,134.3z"/>
			<path class="st0" d="M54.4,123.1c1.5-0.3,3.6-0.5,5.6-0.5c3.1,0,5.2,0.6,6.6,1.9c1.1,1,1.8,2.6,1.8,4.3c0,3-1.9,5-4.3,5.8v0.1
				c1.8,0.6,2.8,2.2,3.3,4.6c0.7,3.2,1.3,5.4,1.8,6.2h-3c-0.4-0.6-0.9-2.6-1.5-5.4c-0.7-3.1-1.9-4.3-4.6-4.4h-2.8v9.8h-2.9
				C54.4,145.5,54.4,123.1,54.4,123.1z M57.3,133.5h3c3.1,0,5.1-1.7,5.1-4.3c0-2.9-2.1-4.2-5.2-4.2c-1.4,0-2.4,0.1-2.9,0.3V133.5z"
				/>
			<path class="st0" d="M84.3,134.9h-8.8v8.2h9.8v2.5H72.5v-22.7h12.3v2.5h-9.3v7.2h8.8V134.9z"/>
			<path class="st0" d="M108.2,135.6c-0.2-3.2-0.4-7-0.3-9.8h-0.1c-0.8,2.7-1.7,5.5-2.9,8.6l-4,11h-2.2L95,134.6
				c-1.1-3.2-2-6.1-2.6-8.8h-0.1c-0.1,2.8-0.2,6.6-0.4,10l-0.6,9.7h-2.8l1.6-22.7h3.7l3.9,11c0.9,2.8,1.7,5.3,2.3,7.7h0.1
				c0.6-2.3,1.4-4.8,2.4-7.7l4-11h3.7l1.4,22.7h-2.9L108.2,135.6z"/>
		</g>
	</g>
	<g id="XMLID_72_">
		<g id="XMLID_96_">
			<g id="XMLID_120_">
				<path id="XMLID_121_" class="st0" d="M26.5,36.4L26.5,36.4l-11.2-6.6C12,28,7.9,30.3,7.9,34.1v26c0,3.8,4.1,6.1,7.3,4.2l8.8-5.1
					c1.5-0.9,2.4-2.5,2.4-4.2V36.4H26.5z"/>
				<path id="XMLID_202_" class="st0" d="M15.2,25.9L24,31c1.5,0.9,3.4,0.9,4.9,0l13.6-7.9c1.5-0.9,2.4-2.5,2.4-4.2V8.7
					c0-3.8-4.1-6.1-7.3-4.2L15.2,17.4C12,19.3,12,24,15.2,25.9z"/>
				<path id="XMLID_203_" class="st0" d="M112,17.4L89.4,4.5c-3.3-1.9-7.3,0.5-7.3,4.2v10.2c0,1.7,0.9,3.4,2.4,4.2l16.1,9.3l0,0
					l11.3-6.5C115.3,24,115.3,19.3,112,17.4z"/>
				<path id="XMLID_208_" class="st0" d="M58.9,96.7l-16.1-9.3c-1.5-0.9-3.4-0.9-4.9,0l-8.8,5.1c-3.3,1.9-3.3,6.6,0,8.5l22.5,13
					c3.3,1.9,7.3-0.5,7.3-4.2V96.7L58.9,96.7z"/>
				<path id="XMLID_209_" class="st0" d="M97.7,100.9c3.2-1.9,3.2-6.6,0-8.4L86.5,86l0,0l-16,9.3c-1.5,0.9-2.4,2.5-2.4,4.2v10.2
					c0,3.8,4.1,6.1,7.3,4.2L97.7,100.9z"/>
				<path id="XMLID_210_" class="st0" d="M100.7,39.2V55c0,1.7,0.9,3.4,2.4,4.2l8.8,5.1c3.2,1.9,7.3-0.5,7.3-4.2l0.1-26
					c0-3.8-4.1-6.1-7.3-4.2l-8.9,5.1C101.6,35.9,100.7,37.5,100.7,39.2z"/>
				<line id="XMLID_216_" class="st0" x1="82.1" y1="64.6" x2="82.2" y2="64.5"/>
			</g>
			<path id="XMLID_213_" class="st0" d="M72.9,86.8l6-3.4c1.5-0.9,2.4-2.5,2.4-4.2V66.6c0-1.7-0.9-3.4-2.4-4.2l-6-3.4
				c-3.3-1.9-7.3,0.5-7.3,4.2v19.4C65.6,86.3,69.7,88.7,72.9,86.8z"/>
			<path id="XMLID_215_" class="st0" d="M48.2,62.3L48.2,62.3c-1.5,0.9-2.4,2.5-2.4,4.2V82l0,0l8.4,4.9c3.3,1.9,7.3-0.5,7.3-4.2
				V63.1c0-3.8-4.1-6.1-7.3-4.2L48.2,62.3z"/>
			<path id="XMLID_223_" class="st0" d="M61.6,32l-10.9-6.3c-1.5-0.9-3.4-0.9-4.9,0l-6,3.4c-3.3,1.9-3.3,6.6,0,8.5l16.8,9.7
				c3.3,1.9,7.3-0.5,7.3-4.2v-6.9C64,34.5,63.1,32.9,61.6,32z"/>
			<path id="XMLID_224_" class="st0" d="M31.4,55.1l10.9,6.3c1.5,0.9,3.4,0.9,4.9,0l6-3.5c3.3-1.9,3.3-6.6,0-8.5l-16.9-9.8
				C33,37.7,29,40.1,29,43.8v6.9C29,52.6,29.9,54.2,31.4,55.1z"/>
			<polygon id="XMLID_225_" class="st0" points="66.5,52.6 66.5,52.6 66.5,52.7 66.5,52.7 66.5,52.7 66.5,52.7 82.2,61.8 82.2,61.8 
				82.2,61.8 82.3,61.7 98,52.7 98,52.7 98,34.4 98,34.4 			"/>
			<path id="XMLID_227_" class="st0" d="M73.3,47.4l16.8-9.7c3.3-1.9,3.3-6.6,0-8.5l-6-3.5c-1.5-0.9-3.4-0.9-4.9,0L68.4,32
				c-1.5,0.9-2.4,2.5-2.4,4.2v6.9C66,46.9,70.1,49.3,73.3,47.4z"/>
		</g>
	</g>
</g>
</svg>
