<?xml version="1.0" encoding="utf-8"?>
<!-- Generator: Adobe Illustrator 22.0.1, SVG Export Plug-In . SVG Version: 6.00 Build 0)  -->
<svg version="1.1" id="Layer_1" xmlns="http://www.w3.org/2000/svg" xmlns:xlink="http://www.w3.org/1999/xlink" x="0px" y="0px"
	 viewBox="0 0 98.3 144" style="enable-background:new 0 0 98.3 144;" xml:space="preserve">
<style type="text/css">
	.st0{fill:#FFFFFF;}
</style>
<g id="XMLID_152_">
	<g id="XMLID_56_">
		<path id="XMLID_37_" class="st0" d="M82.1,13.2c-9-9-20.7-13.5-32.5-13.5c-11.8,0-23.5,4.5-32.5,13.5c-2.1,2.1-3.9,4.4-5.6,6.7
			c6.4-9.3,17.1-15.4,29.3-15.4c19.6,0,35.5,15.9,35.5,35.5c0,6.3-1.6,12.2-4.5,17.3c-0.7,1.3-1.5,2.6-2.4,3.8
			c-1.8,2.4-3.8,4.5-6.1,6.4L49.6,81.2L34.8,95.9l14.8,14.8l32.5-32.5C100,60.3,100,31.2,82.1,13.2z"/>
		<path id="XMLID_34_" class="st0" d="M74.3,45c0-19.6-15.9-35.5-35.5-35.5c-12.2,0-22.9,6.1-29.3,15.4c-0.1,0.1-0.2,0.3-0.3,0.4
			c-0.3,0.4-0.5,0.8-0.8,1.2c0,0,0,0.1-0.1,0.1c-10.9,17.7-8.7,41.2,6.7,56.6l10.3,10.3l14.8-14.8L29.9,68.5
			c-9.8-9.8-9.8-25.7,0-35.5c4.7-4.7,11-7.3,17.7-7.3s13,2.6,17.7,7.3c7.9,7.9,9.4,19.9,4.5,29.3C72.7,57.2,74.3,51.3,74.3,45z"/>
		<path id="XMLID_13_" class="st0" d="M63.9,51.4c0,8.6-7,15.7-15.7,15.7s-15.7-7-15.7-15.7c0-2.5,0.6-4.9,1.7-7
			c2.6-5.1,7.9-8.6,14-8.6c6.1,0,11.4,3.5,14,8.6C63.3,46.4,63.9,48.8,63.9,51.4z"/>
	</g>
	<g id="XMLID_6_">
		<g>
			<path class="st0" d="M0.2,119.8h2.9v20.3h9.7v2.5H0.2V119.8z"/>
			<path class="st0" d="M34.2,130.9c0,7.8-4.8,12-10.5,12c-6,0-10.2-4.7-10.2-11.5c0-7.2,4.5-11.9,10.6-11.9
				C30.2,119.4,34.2,124.2,34.2,130.9z M16.6,131.3c0,4.9,2.6,9.2,7.2,9.2c4.7,0,7.3-4.3,7.3-9.4c0-4.5-2.4-9.2-7.2-9.2
				C19,121.8,16.6,126.3,16.6,131.3z"/>
			<path class="st0" d="M38,120.1c1.5-0.3,3.6-0.5,5.6-0.5c3.1,0,5.2,0.6,6.6,1.9c1.1,1,1.8,2.6,1.8,4.3c0,3-1.9,5-4.3,5.8v0.1
				c1.8,0.6,2.8,2.2,3.3,4.6c0.7,3.2,1.3,5.4,1.8,6.2h-3c-0.4-0.6-0.9-2.6-1.5-5.4c-0.7-3.1-1.9-4.3-4.6-4.4H41v9.8H38V120.1z
				 M41,130.5h3c3.1,0,5.1-1.7,5.1-4.3c0-2.9-2.1-4.2-5.2-4.2c-1.4,0-2.4,0.1-2.9,0.3V130.5z"/>
			<path class="st0" d="M67.9,131.9h-8.8v8.2h9.8v2.5H56.2v-22.7h12.3v2.5h-9.3v7.2h8.8V131.9z"/>
			<path class="st0" d="M91.9,132.5c-0.2-3.2-0.4-7-0.3-9.8h-0.1c-0.8,2.7-1.7,5.5-2.9,8.6l-4,11h-2.2l-3.7-10.8
				c-1.1-3.2-2-6.1-2.6-8.8H76c-0.1,2.8-0.2,6.6-0.4,10l-0.6,9.7h-2.8l1.6-22.7h3.7l3.9,11c0.9,2.8,1.7,5.3,2.3,7.7h0.1
				c0.6-2.3,1.4-4.8,2.4-7.7l4-11h3.7l1.4,22.7h-2.9L91.9,132.5z"/>
		</g>
	</g>
</g>
</svg>
