<svg xmlns="http://www.w3.org/2000/svg" id="Layer_1" viewBox="0 0 109.7 138.1">
  <style>
    .st0{fill:#fff}
  </style>
  <path d="M6.9 110.3h2.9v20.3h9.7v2.5H6.9v-22.8zm34 11.2c0 7.8-4.8 12-10.5 12-6 0-10.2-4.7-10.2-11.5 0-7.2 4.5-11.9 10.5-11.9 6.2-.1 10.2 4.6 10.2 11.4zm-17.6.3c0 4.9 2.6 9.2 7.2 9.2 4.7 0 7.3-4.3 7.3-9.4 0-4.5-2.4-9.2-7.2-9.2-4.9 0-7.3 4.4-7.3 9.4zm21.4-11.2c1.5-.3 3.6-.5 5.6-.5 3.1 0 5.2.6 6.6 1.9 1.1 1 1.8 2.6 1.8 4.3 0 3-1.9 5-4.3 5.8v.1c1.8.6 2.8 2.2 3.3 4.6.7 3.2 1.3 5.4 1.8 6.2h-3c-.4-.6-.9-2.6-1.5-5.4-.7-3.1-1.9-4.3-4.6-4.4h-2.8v9.8h-2.9v-22.4zm3 10.4h3c3.1 0 5.1-1.7 5.1-4.3 0-2.9-2.1-4.2-5.2-4.2-1.4 0-2.4.1-2.9.3v8.2zm26.9 1.4h-8.8v8.2h9.8v2.5H62.9v-22.7h12.3v2.5h-9.3v7.2h8.8v2.3zm24 .7c-.2-3.2-.4-7-.3-9.8h-.1c-.8 2.7-1.7 5.5-2.9 8.6l-4 11h-2.2l-3.7-10.8c-1.1-3.2-2-6.1-2.6-8.8h-.1c-.1 2.8-.2 6.6-.4 10l-.6 9.7h-2.8l1.6-22.7h3.7l3.9 11c.9 2.8 1.7 5.3 2.3 7.7h.1c.6-2.3 1.4-4.8 2.4-7.7l4-11h3.7L102 133h-2.9l-.5-9.9z" class="st0"/>
  <path id="XMLID_11_" d="M78.7 58.7c-6.4-1.2-10.6-7.4-9.3-13.8l1.2-6.1c3.1-16.4-7.1-32.7-23.5-36-16.6-3.4-32.8 7.6-35.7 24.3-2.9 16.4 8.4 32 24.8 35.1l6.1 1.2c6.4 1.2 10.6 7.4 9.3 13.8-2.5 13 5.7 26.1 18.7 28.6 13 2.6 25.7-6 28.1-19.1 2.4-13-6.7-25.5-19.7-28z" class="st0"/>
  <circle id="XMLID_12_" cx="21.6" cy="89.5" r="16.8" class="st0"/>
</svg>
