<?xml version="1.0" encoding="utf-8"?>
<!-- Generator: Adobe Illustrator 22.0.1, SVG Export Plug-In . SVG Version: 6.00 Build 0)  -->
<svg version="1.1" id="Layer_1" xmlns="http://www.w3.org/2000/svg" xmlns:xlink="http://www.w3.org/1999/xlink" x="0px" y="0px"
	 viewBox="0 0 107.2 175.5" style="enable-background:new 0 0 107.2 175.5;" xml:space="preserve">
<style type="text/css">
	.st0{fill:#FFFFFF;}
</style>
<path class="st0" d="M3.2,144.8h2.9v20.3h9.7v2.5H3.2V144.8z"/>
<path class="st0" d="M37.2,156c0,7.8-4.8,12-10.5,12c-6,0-10.2-4.7-10.2-11.5c0-7.2,4.5-11.9,10.6-11.9
	C33.2,144.5,37.2,149.2,37.2,156z M19.6,156.3c0,4.9,2.6,9.2,7.2,9.2c4.7,0,7.3-4.3,7.3-9.4c0-4.5-2.4-9.2-7.2-9.2
	C22,146.9,19.6,151.3,19.6,156.3z"/>
<path class="st0" d="M41,145.1c1.5-0.3,3.6-0.5,5.6-0.5c3.1,0,5.2,0.6,6.6,1.9c1.1,1,1.8,2.6,1.8,4.3c0,3-1.9,5-4.3,5.8v0.1
	c1.8,0.6,2.8,2.2,3.3,4.6c0.7,3.2,1.3,5.4,1.8,6.2h-3c-0.4-0.6-0.9-2.6-1.5-5.4c-0.7-3.1-1.9-4.3-4.6-4.4h-2.8v9.8H41V145.1z
	 M43.9,155.5h3c3.1,0,5.1-1.7,5.1-4.3c0-2.9-2.1-4.2-5.2-4.2c-1.4,0-2.4,0.1-2.9,0.3V155.5z"/>
<path class="st0" d="M70.9,156.9h-8.8v8.2h9.8v2.5H59.1v-22.7h12.3v2.5h-9.3v7.2h8.8V156.9z"/>
<path class="st0" d="M94.9,157.6c-0.2-3.2-0.4-7-0.3-9.8h-0.1c-0.8,2.7-1.7,5.5-2.9,8.6l-4,11h-2.2l-3.7-10.8
	c-1.1-3.2-2-6.1-2.6-8.8H79c-0.1,2.8-0.2,6.6-0.4,10l-0.6,9.7h-2.8l1.6-22.7h3.7l3.9,11c0.9,2.8,1.7,5.3,2.3,7.7h0.1
	c0.6-2.3,1.4-4.8,2.4-7.7l4-11h3.7l1.4,22.7h-2.9L94.9,157.6z"/>
<polygon id="XMLID_15_" class="st0" points="12.7,24.4 50,2.8 50,45.9 "/>
<polyline id="XMLID_40_" class="st0" points="90.3,23.4 53,1.8 53,44.9 90.3,23.4 "/>
<polyline id="XMLID_41_" class="st0" points="92,68 92,24.9 54.7,46.4 "/>
<polygon id="XMLID_27_" class="st0" points="12.7,68.5 50,90 50,46.9 "/>
<polygon id="XMLID_43_" class="st0" points="52.2,46.9 52.2,90 89.6,68.5 "/>
<polygon id="XMLID_46_" class="st0" points="12,70.5 12,113.6 49.3,92 "/>
<polygon id="XMLID_45_" class="st0" points="13.7,114.6 51,136.1 51,93 "/>
<polygon id="XMLID_44_" class="st0" points="53,92 53,135.1 90.3,113.6 "/>
</svg>
