<svg xmlns="http://www.w3.org/2000/svg" id="logo_1" viewBox="0 0 98.3 144">
  <style>
    .st0{fill:#fff}
  </style>
  <g id="XMLID_152_">
    <g id="XMLID_56_">
      <path id="XMLID_37_" d="M82.1 13.2c-9-9-20.7-13.5-32.5-13.5S26.1 4.2 17.1 13.2c-2.1 2.1-3.9 4.4-5.6 6.7 6.4-9.3 17.1-15.4 29.3-15.4 19.6 0 35.5 15.9 35.5 35.5 0 6.3-1.6 12.2-4.5 17.3-.7 1.3-1.5 2.6-2.4 3.8-1.8 2.4-3.8 4.5-6.1 6.4L49.6 81.2 34.8 95.9l14.8 14.8 32.5-32.5c17.9-17.9 17.9-47 0-65z" class="st0"/>
      <path id="XMLID_34_" d="M74.3 45c0-19.6-15.9-35.5-35.5-35.5-12.2 0-22.9 6.1-29.3 15.4-.1.1-.2.3-.3.4-.3.4-.5.8-.8 1.2 0 0 0 .1-.1.1C-2.6 44.3-.4 67.8 15 83.2l10.3 10.3 14.8-14.8-10.2-10.2c-9.8-9.8-9.8-25.7 0-35.5 4.7-4.7 11-7.3 17.7-7.3s13 2.6 17.7 7.3c7.9 7.9 9.4 19.9 4.5 29.3 2.9-5.1 4.5-11 4.5-17.3z" class="st0"/>
      <path id="XMLID_13_" d="M63.9 51.4c0 8.6-7 15.7-15.7 15.7s-15.7-7-15.7-15.7c0-2.5.6-4.9 1.7-7 2.6-5.1 7.9-8.6 14-8.6s11.4 3.5 14 8.6c1.1 2 1.7 4.4 1.7 7z" class="st0"/>
    </g>
    <path id="XMLID_6_" d="M.2 119.8h2.9v20.3h9.7v2.5H.2v-22.8zm34 11.1c0 7.8-4.8 12-10.5 12-6 0-10.2-4.7-10.2-11.5 0-7.2 4.5-11.9 10.6-11.9 6.1-.1 10.1 4.7 10.1 11.4zm-17.6.4c0 4.9 2.6 9.2 7.2 9.2 4.7 0 7.3-4.3 7.3-9.4 0-4.5-2.4-9.2-7.2-9.2-4.9-.1-7.3 4.4-7.3 9.4zM38 120.1c1.5-.3 3.6-.5 5.6-.5 3.1 0 5.2.6 6.6 1.9 1.1 1 1.8 2.6 1.8 4.3 0 3-1.9 5-4.3 5.8v.1c1.8.6 2.8 2.2 3.3 4.6.7 3.2 1.3 5.4 1.8 6.2h-3c-.4-.6-.9-2.6-1.5-5.4-.7-3.1-1.9-4.3-4.6-4.4H41v9.8h-3v-22.4zm3 10.4h3c3.1 0 5.1-1.7 5.1-4.3 0-2.9-2.1-4.2-5.2-4.2-1.4 0-2.4.1-2.9.3v8.2zm26.9 1.4h-8.8v8.2h9.8v2.5H56.2v-22.7h12.3v2.5h-9.3v7.2H68v2.3zm24 .6c-.2-3.2-.4-7-.3-9.8h-.1c-.8 2.7-1.7 5.5-2.9 8.6l-4 11h-2.2l-3.7-10.8c-1.1-3.2-2-6.1-2.6-8.8H76c-.1 2.8-.2 6.6-.4 10l-.6 9.7h-2.8l1.6-22.7h3.7l3.9 11c.9 2.8 1.7 5.3 2.3 7.7h.1c.6-2.3 1.4-4.8 2.4-7.7l4-11h3.7l1.4 22.7h-2.9l-.5-9.9z" class="st0"/>
  </g>
</svg>
