<svg xmlns="http://www.w3.org/2000/svg" id="logo_7" viewBox="0 0 143.6 127.6">
  <style>
    .st0{fill:#fff}
  </style>
  <path d="M21.3 104.8h2.9v20.3h9.7v2.5H21.3v-22.8zm34 11.2c0 7.8-4.8 12-10.5 12-6 0-10.2-4.7-10.2-11.5 0-7.2 4.5-11.9 10.5-11.9 6.2-.1 10.2 4.6 10.2 11.4zm-17.6.3c0 4.9 2.6 9.2 7.2 9.2 4.7 0 7.3-4.3 7.3-9.4 0-4.5-2.4-9.2-7.2-9.2-4.9 0-7.3 4.4-7.3 9.4zm21.4-11.2c1.5-.3 3.6-.5 5.6-.5 3.1 0 5.2.6 6.6 1.9 1.1 1 1.8 2.6 1.8 4.3 0 3-1.9 5-4.3 5.8v.1c1.8.6 2.8 2.2 3.3 4.6.7 3.2 1.3 5.4 1.8 6.2h-3c-.4-.6-.9-2.6-1.5-5.4-.7-3.1-1.9-4.3-4.6-4.4H62v9.8h-2.9v-22.4zm2.9 10.4h3c3.1 0 5.1-1.7 5.1-4.3 0-2.9-2.1-4.2-5.2-4.2-1.4 0-2.4.1-2.9.3v8.2zm27 1.4h-8.8v8.2H90v2.5H77.2v-22.7h12.3v2.5h-9.3v7.2H89v2.3zm23.9.7c-.2-3.2-.4-7-.3-9.8h-.1c-.8 2.7-1.7 5.5-2.9 8.6l-4 11h-2.2l-3.7-10.8c-1.1-3.2-2-6.1-2.6-8.8H97c-.1 2.8-.2 6.6-.4 10l-.6 9.7h-2.8l1.6-22.7h3.7l3.9 11c.9 2.8 1.7 5.3 2.3 7.7h.1c.6-2.3 1.4-4.8 2.4-7.7l4-11h3.7l1.4 22.7h-2.9l-.5-9.9z" class="st0"/>
  <path id="XMLID_89_" d="M27.7 74.5H6.4c0 10.3 9.5 18.7 21.3 18.7h85.1L92.2 74.5H27.7z" class="st0"/>
  <path id="XMLID_82_" d="M113.8 1.8H28.7v18.7h106.4c0-10.3-9.5-18.7-21.3-18.7z" class="st0"/>
  <path id="XMLID_87_" d="M114.8 22.5v68.7c11.8 0 21.3-8.4 21.3-18.7v-50h-21.3z" class="st0"/>
  <path id="XMLID_74_" d="M5.4 72.5h21.3V3.8c-11.8 0-21.3 8.4-21.3 18.7v50z" class="st0"/>
  <path id="XMLID_65_" d="M56.9 46.6c0 3.3-3.1 6-6.9 6-3.8 0-6.9-2.7-6.9-6s3.1-6 6.9-6c3.9-.1 6.9 2.6 6.9 6z" class="st0"/>
  <path id="XMLID_77_" d="M80 46.6c0 3.3-3.1 6-6.9 6-3.8 0-6.9-2.7-6.9-6s3.1-6 6.9-6c3.8-.1 6.9 2.6 6.9 6z" class="st0"/>
  <path id="XMLID_91_" d="M103.1 46.6c0 3.3-3.1 6-6.9 6-3.8 0-6.9-2.7-6.9-6s3.1-6 6.9-6c3.8-.1 6.9 2.6 6.9 6z" class="st0"/>
</svg>
