<?xml version="1.0" encoding="utf-8"?>
<!-- Generator: Adobe Illustrator 22.0.1, SVG Export Plug-In . SVG Version: 6.00 Build 0)  -->
<svg version="1.1" id="Layer_1" xmlns="http://www.w3.org/2000/svg" xmlns:xlink="http://www.w3.org/1999/xlink" x="0px" y="0px"
	 viewBox="0 0 150 200" style="enable-background:new 0 0 150 200;" xml:space="preserve">
<style type="text/css">
	.st0{fill:#FFFFFF;}
</style>
<g>
	<path class="st0" d="M25,149.8h2.9v20.3h9.7v2.5H25V149.8z"/>
	<path class="st0" d="M59,160.9c0,7.8-4.8,12-10.5,12c-6,0-10.2-4.7-10.2-11.5c0-7.2,4.5-11.9,10.6-11.9C55,149.4,59,154.2,59,160.9
		z M41.4,161.3c0,4.9,2.6,9.2,7.2,9.2c4.7,0,7.3-4.3,7.3-9.4c0-4.5-2.4-9.2-7.2-9.2C43.8,151.8,41.4,156.3,41.4,161.3z"/>
	<path class="st0" d="M62.8,150.1c1.5-0.3,3.6-0.5,5.6-0.5c3.1,0,5.2,0.6,6.6,1.9c1.1,1,1.8,2.6,1.8,4.3c0,3-1.9,5-4.3,5.8v0.1
		c1.8,0.6,2.8,2.2,3.3,4.6c0.7,3.2,1.3,5.4,1.8,6.2h-3c-0.4-0.6-0.9-2.6-1.5-5.4c-0.7-3.1-1.9-4.3-4.6-4.4h-2.8v9.8h-2.9V150.1z
		 M65.7,160.5h3c3.1,0,5.1-1.7,5.1-4.3c0-2.9-2.1-4.2-5.2-4.2c-1.4,0-2.4,0.1-2.9,0.3V160.5z"/>
	<path class="st0" d="M92.7,161.9h-8.8v8.2h9.8v2.5H80.9v-22.7h12.3v2.5h-9.3v7.2h8.8V161.9z"/>
	<path class="st0" d="M116.7,162.5c-0.2-3.2-0.4-7-0.3-9.8h-0.1c-0.8,2.7-1.7,5.5-2.9,8.6l-4,11h-2.2l-3.7-10.8
		c-1.1-3.2-2-6.1-2.6-8.8h-0.1c-0.1,2.8-0.2,6.6-0.4,10l-0.6,9.7h-2.8l1.6-22.7h3.7l3.9,11c0.9,2.8,1.7,5.3,2.3,7.7h0.1
		c0.6-2.3,1.4-4.8,2.4-7.7l4-11h3.7l1.4,22.7h-2.9L116.7,162.5z"/>
</g>
<path id="XMLID_48_" class="st0" d="M74,80v55.6l0,0c-30.7,0-55.6-24.9-55.6-55.6l0,0H74z"/>
<path id="XMLID_50_" class="st0" d="M80.6,71L80.6,71H25V15.4l0,0C55.7,15.4,80.6,40.3,80.6,71z"/>
<path id="XMLID_52_" class="st0" d="M136.7,80.5L136.7,80.5c0,30.7-24.9,55.6-55.6,55.6l0,0l0,0C81,105.4,105.9,80.5,136.7,80.5
	L136.7,80.5z"/>
<path id="XMLID_51_" class="st0" d="M131.7,71.5L131.7,71.5L131.7,71.5C100.9,71.5,76,46.6,76,15.8l0,0l0,0
	C106.8,15.8,131.7,40.7,131.7,71.5z"/>
</svg>
