<svg xmlns="http://www.w3.org/2000/svg" id="Layer_1" viewBox="0 0 107.2 175.5">
  <style>
    .st0{fill:#fff}
  </style>
  <path d="M3.2 144.8h2.9v20.3h9.7v2.5H3.2v-22.8zm34 11.2c0 7.8-4.8 12-10.5 12-6 0-10.2-4.7-10.2-11.5 0-7.2 4.5-11.9 10.6-11.9 6.1-.1 10.1 4.6 10.1 11.4zm-17.6.3c0 4.9 2.6 9.2 7.2 9.2 4.7 0 7.3-4.3 7.3-9.4 0-4.5-2.4-9.2-7.2-9.2-4.9 0-7.3 4.4-7.3 9.4zM41 145.1c1.5-.3 3.6-.5 5.6-.5 3.1 0 5.2.6 6.6 1.9 1.1 1 1.8 2.6 1.8 4.3 0 3-1.9 5-4.3 5.8v.1c1.8.6 2.8 2.2 3.3 4.6.7 3.2 1.3 5.4 1.8 6.2h-3c-.4-.6-.9-2.6-1.5-5.4-.7-3.1-1.9-4.3-4.6-4.4h-2.8v9.8H41v-22.4zm2.9 10.4h3c3.1 0 5.1-1.7 5.1-4.3 0-2.9-2.1-4.2-5.2-4.2-1.4 0-2.4.1-2.9.3v8.2zm27 1.4h-8.8v8.2h9.8v2.5H59.1v-22.7h12.3v2.5h-9.3v7.2h8.8v2.3zm24 .7c-.2-3.2-.4-7-.3-9.8h-.1c-.8 2.7-1.7 5.5-2.9 8.6l-4 11h-2.2l-3.7-10.8c-1.1-3.2-2-6.1-2.6-8.8H79c-.1 2.8-.2 6.6-.4 10l-.6 9.7h-2.8l1.6-22.7h3.7l3.9 11c.9 2.8 1.7 5.3 2.3 7.7h.1c.6-2.3 1.4-4.8 2.4-7.7l4-11h3.7l1.4 22.7h-2.9l-.5-9.9z" class="st0"/>
  <path id="XMLID_15_" d="M12.7 24.4L50 2.8v43.1z" class="st0"/>
  <path id="XMLID_40_" d="M90.3 23.4L53 1.8v43.1l37.3-21.5" class="st0"/>
  <path id="XMLID_41_" d="M92 68V24.9L54.7 46.4" class="st0"/>
  <path id="XMLID_27_" d="M12.7 68.5L50 90V46.9z" class="st0"/>
  <path id="XMLID_43_" d="M52.2 46.9V90l37.4-21.5z" class="st0"/>
  <path id="XMLID_46_" d="M12 70.5v43.1L49.3 92z" class="st0"/>
  <path id="XMLID_45_" d="M13.7 114.6L51 136.1V93z" class="st0"/>
  <path id="XMLID_44_" d="M53 92v43.1l37.3-21.5z" class="st0"/>
</svg>
