<svg xmlns="http://www.w3.org/2000/svg" id="Layer_1" viewBox="0 0 144.7 182">
  <style>
    .st0{fill:#fff}
  </style>
  <path d="M20.5 154.1h2.9v20.3h9.7v2.5H20.5v-22.8zm34.1 11.1c0 7.8-4.8 12-10.5 12-6 0-10.2-4.7-10.2-11.5 0-7.2 4.5-11.9 10.6-11.9 6-.1 10.1 4.6 10.1 11.4zm-17.7.4c0 4.9 2.6 9.2 7.2 9.2 4.7 0 7.3-4.3 7.3-9.4 0-4.5-2.4-9.2-7.2-9.2-4.8-.1-7.3 4.4-7.3 9.4zm21.5-11.2c1.5-.3 3.6-.5 5.6-.5 3.1 0 5.2.6 6.6 1.9 1.1 1 1.8 2.6 1.8 4.3 0 3-1.9 5-4.3 5.8v.1c1.8.6 2.8 2.2 3.3 4.6.7 3.2 1.3 5.4 1.8 6.2h-3c-.4-.6-.9-2.6-1.5-5.4-.7-3.1-1.9-4.3-4.6-4.4h-2.8v9.8h-2.9v-22.4zm2.9 10.3h3c3.1 0 5.1-1.7 5.1-4.3 0-2.9-2.1-4.2-5.2-4.2-1.4 0-2.4.1-2.9.3v8.2zm27 1.4h-8.8v8.2h9.8v2.5H76.5v-22.7h12.3v2.5h-9.3v7.2h8.8v2.3zm23.9.7c-.2-3.2-.4-7-.3-9.8h-.1c-.8 2.7-1.7 5.5-2.9 8.6l-4 11h-2.2L99 165.8c-1.1-3.2-2-6.1-2.6-8.8h-.1c-.1 2.8-.2 6.6-.4 10l-.6 9.7h-2.8l1.6-22.7h3.7l3.9 11c.9 2.8 1.7 5.3 2.3 7.7h.1c.6-2.3 1.4-4.8 2.4-7.7l4-11h3.7l1.4 22.7h-2.9l-.5-9.9z" class="st0"/>
  <path id="XMLID_125_" d="M68.1 5.8C33.6 5.8 5.7 33.7 5.7 68.2v.2c.1-30.1 24.5-54.5 54.7-54.5 2.6 0 5.2.2 7.8.6 23.6 3.4 42.3 21.8 46.2 45.3.5 2.4.7 4.9.8 7.4v2c0 .7 0 1.4-.1 2.1v-.6c-1.3 20.5-18.3 36.7-39 36.7-2.7 0-5.3-.3-7.9-.8-18-3.6-31.3-19.5-31.3-38.4C36.9 51 50.9 37 68.1 37s31.2 14 31.2 31.2c0-18.9-13.4-34.8-31.2-38.4-2.5-.5-5.2-.8-7.9-.8-20.1 0-36.7 15.3-38.8 34.9-.1 1.5-.2 3.2-.2 4.8v2.2c1.1 26.6 21.1 48.3 46.8 52 2.5.4 5.1.6 7.8.6 28.3 0 51.6-21.5 54.4-49.2.1-1.4.2-2.8.3-4.3v-1.8c-.1-34.5-28-62.4-62.4-62.4z" class="st0"/>
  <g id="XMLID_122_">
    <path id="XMLID_88_" d="M74.7 129.2c-2.6 0-5.2-.2-7.8-.6-25.8-3.7-45.8-25.4-46.8-52 0-.6-.1-1.1-.1-1.6v-2c.1-2.3.3-4.5.7-6.8-.2 1.2-.3 2.3-.4 3.4C22.4 50 39 34.8 59.1 34.8c2.7 0 5.3.3 7.9.8C84.9 39.2 98.2 55.1 98.2 74c0 17.2-14 31.2-31.2 31.2S35.8 91.2 35.8 74c0 18.9 13.4 34.8 31.2 38.4 2.5.5 5.2.8 7.9.8 20.8 0 37.7-16.2 39-36.7v-2.1c0-1.7-.1-3.4-.2-5.1-.1-1.3-.3-2.5-.5-3.8-3.8-23.4-22.5-41.9-46.1-45.3-2.5-.4-5.1-.6-7.8-.6-30 .1-54.5 24.5-54.6 54.6 0 2 .1 4.2.3 6.2 3.2 31.5 29.8 56 62 56 32.4 0 59-24.7 62.1-56.3-2.8 27.6-26 49.1-54.4 49.1z" class="st0"/>
  </g>
</svg>
