<?xml version="1.0" encoding="utf-8"?>
<!-- Generator: Adobe Illustrator 22.0.1, SVG Export Plug-In . SVG Version: 6.00 Build 0)  -->
<svg version="1.1" id="Layer_1" xmlns="http://www.w3.org/2000/svg" xmlns:xlink="http://www.w3.org/1999/xlink" x="0px" y="0px"
	 viewBox="0 0 109.7 138.1" style="enable-background:new 0 0 109.7 138.1;" xml:space="preserve">
<style type="text/css">
	.st0{fill:#FFFFFF;}
</style>
<g>
	<path class="st0" d="M6.9,110.3h2.9v20.3h9.7v2.5H6.9V110.3z"/>
	<path class="st0" d="M40.9,121.5c0,7.8-4.8,12-10.5,12c-6,0-10.2-4.7-10.2-11.5c0-7.2,4.5-11.9,10.5-11.9
		C36.9,110,40.9,114.7,40.9,121.5z M23.3,121.8c0,4.9,2.6,9.2,7.2,9.2c4.7,0,7.3-4.3,7.3-9.4c0-4.5-2.4-9.2-7.2-9.2
		C25.7,112.4,23.3,116.8,23.3,121.8z"/>
	<path class="st0" d="M44.7,110.6c1.5-0.3,3.6-0.5,5.6-0.5c3.1,0,5.2,0.6,6.6,1.9c1.1,1,1.8,2.6,1.8,4.3c0,3-1.9,5-4.3,5.8v0.1
		c1.8,0.6,2.8,2.2,3.3,4.6c0.7,3.2,1.3,5.4,1.8,6.2h-3c-0.4-0.6-0.9-2.6-1.5-5.4c-0.7-3.1-1.9-4.3-4.6-4.4h-2.8v9.8h-2.9V110.6z
		 M47.7,121h3c3.1,0,5.1-1.7,5.1-4.3c0-2.9-2.1-4.2-5.2-4.2c-1.4,0-2.4,0.1-2.9,0.3V121z"/>
	<path class="st0" d="M74.6,122.4h-8.8v8.2h9.8v2.5H62.9v-22.7h12.3v2.5h-9.3v7.2h8.8V122.4z"/>
	<path class="st0" d="M98.6,123.1c-0.2-3.2-0.4-7-0.3-9.8h-0.1c-0.8,2.7-1.7,5.5-2.9,8.6l-4,11h-2.2l-3.7-10.8
		c-1.1-3.2-2-6.1-2.6-8.8h-0.1c-0.1,2.8-0.2,6.6-0.4,10l-0.6,9.7h-2.8l1.6-22.7h3.7l3.9,11c0.9,2.8,1.7,5.3,2.3,7.7h0.1
		c0.6-2.3,1.4-4.8,2.4-7.7l4-11h3.7l1.4,22.7h-2.9L98.6,123.1z"/>
</g>
<path id="XMLID_11_" class="st0" d="M78.7,58.7c-6.4-1.2-10.6-7.4-9.3-13.8l1.2-6.1c3.1-16.4-7.1-32.7-23.5-36
	c-16.6-3.4-32.8,7.6-35.7,24.3c-2.9,16.4,8.4,32,24.8,35.1l6.1,1.2c6.4,1.2,10.6,7.4,9.3,13.8c-2.5,13,5.7,26.1,18.7,28.6
	c13,2.6,25.7-6,28.1-19.1C100.8,73.7,91.7,61.2,78.7,58.7z"/>
<circle id="XMLID_12_" class="st0" cx="21.6" cy="89.5" r="16.8"/>
</svg>
