<?xml version="1.0" encoding="utf-8"?>
<!-- Generator: Adobe Illustrator 22.0.1, SVG Export Plug-In . SVG Version: 6.00 Build 0)  -->
<svg version="1.1" id="Layer_1" xmlns="http://www.w3.org/2000/svg" xmlns:xlink="http://www.w3.org/1999/xlink" x="0px" y="0px"
	 viewBox="0 0 139.5 163.3" style="enable-background:new 0 0 139.5 163.3;" xml:space="preserve">
<style type="text/css">
	.st0{fill:#FFFFFF;}
</style>
<g>
	<path class="st0" d="M23.2,135.7h2.9v20.3h9.7v2.5H23.2V135.7z"/>
	<path class="st0" d="M57.3,146.8c0,7.8-4.8,12-10.5,12c-6,0-10.2-4.7-10.2-11.5c0-7.2,4.5-11.9,10.6-11.9
		C53.2,135.3,57.3,140,57.3,146.8z M39.6,147.2c0,4.9,2.6,9.2,7.2,9.2c4.7,0,7.3-4.3,7.3-9.4c0-4.5-2.4-9.2-7.2-9.2
		C42.1,137.7,39.6,142.2,39.6,147.2z"/>
	<path class="st0" d="M61.1,136c1.5-0.3,3.6-0.5,5.6-0.5c3.1,0,5.2,0.6,6.6,1.9c1.1,1,1.8,2.6,1.8,4.3c0,3-1.9,5-4.3,5.8v0.1
		c1.8,0.6,2.8,2.2,3.3,4.6c0.7,3.2,1.3,5.4,1.8,6.2h-3c-0.4-0.6-0.9-2.6-1.5-5.4c-0.7-3.1-1.9-4.3-4.6-4.4H64v9.8h-2.9V136z
		 M64,146.3h3c3.1,0,5.1-1.7,5.1-4.3c0-2.9-2.1-4.2-5.2-4.2c-1.4,0-2.4,0.1-2.9,0.3V146.3z"/>
	<path class="st0" d="M91,147.7h-8.8v8.2H92v2.5H79.2v-22.7h12.3v2.5h-9.3v7.2H91V147.7z"/>
	<path class="st0" d="M114.9,148.4c-0.2-3.2-0.4-7-0.3-9.8h-0.1c-0.8,2.7-1.7,5.5-2.9,8.6l-4,11h-2.2l-3.7-10.8
		c-1.1-3.2-2-6.1-2.6-8.8H99c-0.1,2.8-0.2,6.6-0.4,10l-0.6,9.7h-2.8l1.6-22.7h3.7l3.9,11c0.9,2.8,1.7,5.3,2.3,7.7h0.1
		c0.6-2.3,1.4-4.8,2.4-7.7l4-11h3.7l1.4,22.7h-2.9L114.9,148.4z"/>
</g>
<path id="XMLID_125_" class="st0" d="M68.6-0.6C32.9-0.6,4,28.3,4,64c0,0.1,0,0.1,0,0.2C4.1,33,29.4,7.8,60.6,7.8
	c2.7,0,5.4,0.2,8.1,0.6c24.4,3.5,43.8,22.6,47.8,46.9c0.5,2.5,0.7,5.1,0.8,7.7c0,0.3,0,0.7,0,1c0,0.4,0,0.7,0,1c0,0.7,0,1.4-0.1,2.2
	c0-0.2,0-0.4,0-0.6c-1.3,21.2-18.9,38-40.4,38c-2.8,0-5.5-0.3-8.2-0.8C50.1,100,36.3,83.6,36.3,64c0-17.8,14.5-32.3,32.3-32.3
	c17.8,0,32.3,14.5,32.3,32.3c0-19.6-13.9-36-32.3-39.8c-2.6-0.5-5.4-0.8-8.2-0.8c-20.8,0-38,15.8-40.2,36.1c-0.1,1.6-0.2,3.3-0.2,5
	c0,0.6,0,1.1,0,1.7c0,0.2,0,0.4,0,0.6c1.1,27.5,21.8,50,48.5,53.8c2.6,0.4,5.3,0.6,8.1,0.6c29.3,0,53.4-22.3,56.3-50.9
	c0.1-1.5,0.2-2.9,0.3-4.4c0-0.6,0-1.2,0-1.9C133.1,28.3,104.2-0.6,68.6-0.6z"/>
<g id="XMLID_122_">
	<defs>
		<path id="XMLID_88_" d="M75.5,127.1c-2.7,0-5.4-0.2-8.1-0.6c-26.7-3.8-47.4-26.3-48.5-53.8c0-0.6-0.1-1.1-0.1-1.7c0-0.3,0-0.7,0-1
			c0-0.4,0-0.7,0-1c0.1-2.4,0.3-4.7,0.7-7c-0.2,1.2-0.3,2.4-0.4,3.5c2.2-20.3,19.4-36.1,40.2-36.1c2.8,0,5.5,0.3,8.2,0.8
			C86,34,99.8,50.4,99.8,70c0,17.8-14.5,32.3-32.3,32.3c-17.8,0-32.3-14.5-32.3-32.3c0,19.6,13.9,36,32.3,39.8
			c2.6,0.5,5.4,0.8,8.2,0.8c21.5,0,39-16.8,40.4-38c0-0.7,0-1.4,0-2.2c0-1.8-0.1-3.5-0.2-5.3c-0.1-1.3-0.3-2.6-0.5-3.9
			C111.5,37,92.1,17.8,67.7,14.3c-2.6-0.4-5.3-0.6-8.1-0.6C28.4,13.8,3.1,39,3,70.2c0,2.1,0.1,4.3,0.3,6.4c3.3,32.6,30.8,58,64.2,58
			c33.5,0,61.1-25.6,64.3-58.3C128.9,104.9,104.8,127.1,75.5,127.1z"/>
	</defs>
	<use xlink:href="#XMLID_88_"  style="overflow:visible;fill:#FFFFFF;"/>
	<clipPath id="XMLID_2_">
		<use xlink:href="#XMLID_88_"  style="overflow:visible;"/>
	</clipPath>
</g>
</svg>
