<?xml version="1.0" encoding="utf-8"?>
<!-- Generator: Adobe Illustrator 22.0.1, SVG Export Plug-In . SVG Version: 6.00 Build 0)  -->
<svg version="1.1" id="Layer_1" xmlns="http://www.w3.org/2000/svg" xmlns:xlink="http://www.w3.org/1999/xlink" x="0px" y="0px"
	 viewBox="0 0 143.6 127.6" style="enable-background:new 0 0 143.6 127.6;" xml:space="preserve">
<style type="text/css">
	.st0{fill:#FFFFFF;}
</style>
<g>
	<path class="st0" d="M21.3,104.8h2.9v20.3h9.7v2.5H21.3V104.8z"/>
	<path class="st0" d="M55.3,116c0,7.8-4.8,12-10.5,12c-6,0-10.2-4.7-10.2-11.5c0-7.2,4.5-11.9,10.5-11.9
		C51.3,104.5,55.3,109.2,55.3,116z M37.7,116.3c0,4.9,2.6,9.2,7.2,9.2c4.7,0,7.3-4.3,7.3-9.4c0-4.5-2.4-9.2-7.2-9.2
		C40.1,106.9,37.7,111.3,37.7,116.3z"/>
	<path class="st0" d="M59.1,105.1c1.5-0.3,3.6-0.5,5.6-0.5c3.1,0,5.2,0.6,6.6,1.9c1.1,1,1.8,2.6,1.8,4.3c0,3-1.9,5-4.3,5.8v0.1
		c1.8,0.6,2.8,2.2,3.3,4.6c0.7,3.2,1.3,5.4,1.8,6.2h-3c-0.4-0.6-0.9-2.6-1.5-5.4c-0.7-3.1-1.9-4.3-4.6-4.4H62v9.8h-2.9V105.1z
		 M62,115.5h3c3.1,0,5.1-1.7,5.1-4.3c0-2.9-2.1-4.2-5.2-4.2c-1.4,0-2.4,0.1-2.9,0.3V115.5z"/>
	<path class="st0" d="M89,116.9h-8.8v8.2H90v2.5H77.2v-22.7h12.3v2.5h-9.3v7.2H89V116.9z"/>
	<path class="st0" d="M112.9,117.6c-0.2-3.2-0.4-7-0.3-9.8h-0.1c-0.8,2.7-1.7,5.5-2.9,8.6l-4,11h-2.2l-3.7-10.8
		c-1.1-3.2-2-6.1-2.6-8.8H97c-0.1,2.8-0.2,6.6-0.4,10l-0.6,9.7h-2.8l1.6-22.7h3.7l3.9,11c0.9,2.8,1.7,5.3,2.3,7.7h0.1
		c0.6-2.3,1.4-4.8,2.4-7.7l4-11h3.7l1.4,22.7h-2.9L112.9,117.6z"/>
</g>
<path id="XMLID_89_" class="st0" d="M27.7,74.5H6.4l0,0c0,10.3,9.5,18.7,21.3,18.7h85.1L92.2,74.5H27.7z"/>
<path id="XMLID_82_" class="st0" d="M113.8,1.8H28.7v18.7h106.4l0,0C135.1,10.2,125.6,1.8,113.8,1.8z"/>
<path id="XMLID_87_" class="st0" d="M114.8,22.5v68.7l0,0c11.8,0,21.3-8.4,21.3-18.7V22.5H114.8z"/>
<path id="XMLID_74_" class="st0" d="M5.4,72.5h21.3V3.8l0,0c-11.8,0-21.3,8.4-21.3,18.7V72.5z"/>
<path id="XMLID_65_" class="st0" d="M56.9,46.6c0,3.3-3.1,6-6.9,6c-3.8,0-6.9-2.7-6.9-6c0-3.3,3.1-6,6.9-6
	C53.9,40.5,56.9,43.2,56.9,46.6z"/>
<path id="XMLID_77_" class="st0" d="M80,46.6c0,3.3-3.1,6-6.9,6c-3.8,0-6.9-2.7-6.9-6c0-3.3,3.1-6,6.9-6C76.9,40.5,80,43.2,80,46.6z
	"/>
<path id="XMLID_91_" class="st0" d="M103.1,46.6c0,3.3-3.1,6-6.9,6c-3.8,0-6.9-2.7-6.9-6c0-3.3,3.1-6,6.9-6
	C100,40.5,103.1,43.2,103.1,46.6z"/>
</svg>
