<svg id="Layer_1" data-name="Layer 1" xmlns="http://www.w3.org/2000/svg" viewBox="0 0 141.47 225.68"><defs><style>.cls-1{fill:#016848;}.cls-2{fill:#fff;}</style></defs><title>Artboard 1</title><g id="Layer_2" data-name="Layer 2"><g id="Layer_1-2" data-name="Layer 1-2"><rect class="cls-1" x="3.71" y="3.71" width="131.82" height="214.73" rx="20.29" ry="20.29"/><path class="cls-2" d="M115.23,7.42A16.62,16.62,0,0,1,131.82,24V198.15a16.62,16.62,0,0,1-16.59,16.58H24A16.61,16.61,0,0,1,7.42,198.15V24A16.61,16.61,0,0,1,24,7.42h91.23m0-7.42H24A24,24,0,0,0,0,24V198.15a24,24,0,0,0,24,24h91.23a24,24,0,0,0,24-24V24A24,24,0,0,0,115.23,0Z"/><path id="M" class="cls-2" d="M31.05,38.1,39.14,56,47.3,38.1h5.83V82.62h-6V51.75L40.22,66.3H37.69L30.83,51.46V82.62h-6V38.1Z"/><path id="I" class="cls-2" d="M65.22,38.1V82.62h-6V38.1Z"/><path id="L" class="cls-2" d="M77.69,38.1V77.2H91.15v5.53H71.68V38.21Z"/><path id="E" class="cls-2" d="M113.9,38.1v5.49H101.25V57.76h8.94v5.31h-9V77.24h12.91v5.49H95.24V38.21Z"/><g id="_2_Bold" data-name=" 2 Bold"><path class="cls-2" d="M45,126.14A29.14,29.14,0,0,1,69.71,114c12.73,0,23.34,6.34,23.34,20.18A17.38,17.38,0,0,1,85.63,149c-5.57,4.27-14.51,8.05-19.78,11.72s-6.49,7-6.49,10.61H92.75v12.73H44V180c0-10.32,2.08-18.77,8.53-24.52,5.57-5,15.88-9.35,20.78-12.14s6.57-5.08,6.57-8.64c0-5.45-4.09-7.94-9.72-7.94a20.42,20.42,0,0,0-16.11,8.46Z"/></g></g></g></svg>