<svg xmlns="http://www.w3.org/2000/svg" id="Layer_1" viewBox="0 0 141.5 225.7">
  <style>
    .st1{fill:#fff}
  </style>
  <g id="Layer_2_2_">
    <g id="Layer_1-2_1_">
      <path fill="#016848" d="M24 3.7h91.2c11.2 0 20.3 9.1 20.3 20.3v174.1c0 11.2-9.1 20.3-20.3 20.3H24c-11.2 0-20.3-9.1-20.3-20.3V24C3.7 12.8 12.8 3.7 24 3.7z"/>
      <path d="M115.2 7.4c9.2 0 16.6 7.4 16.6 16.6v174.1c0 9.2-7.4 16.6-16.6 16.6H24c-9.2 0-16.6-7.4-16.6-16.6V24c0-9.2 7.4-16.6 16.6-16.6h91.2m0-7.4H24C10.8 0 0 10.8 0 24v174.1c0 13.2 10.8 24 24 24h91.2c13.2 0 24-10.8 24-24V24c0-13.2-10.7-24-24-24z" class="st1"/>
      <path id="M_1_" d="M31.1 38.1l8.1 17.8 8.2-17.8h5.8v44.5h-6V51.8l-6.9 14.5h-2.5l-6.9-14.8v31.2h-6V38.1h6.2z" class="st1"/>
      <path id="I_1_" d="M65.2 38.1v44.5h-6V38.1h6z" class="st1"/>
      <path id="L_1_" d="M77.7 38.1v39.1h13.5v5.5H71.7V38.2l6-.1z" class="st1"/>
      <path id="E_1_" d="M113.9 38.1v5.5h-12.7v14.2h8.9v5.3h-9v14.2H114v5.5H95.2V38.2l18.7-.1z" class="st1"/>
      <path id="_2_Bold_1_" d="M45 126.1c5.7-7.9 15-12.5 24.7-12.1 12.7 0 23.3 6.3 23.3 20.2.2 5.9-2.6 11.5-7.4 14.8-5.6 4.3-14.5 8.1-19.8 11.7-5.3 3.7-6.5 7-6.5 10.6h33.4V184H44v-4c0-10.3 2.1-18.8 8.5-24.5 5.6-5 15.9-9.3 20.8-12.1 4.9-2.8 6.6-5.1 6.6-8.6 0-5.5-4.1-7.9-9.7-7.9-6.4.1-12.4 3.3-16.1 8.5l-9.1-9.3z" class="st1"/>
    </g>
  </g>
</svg>
